<svg id="Group_24272" data-name="Group 24272" xmlns="http://www.w3.org/2000/svg" width="54.794" height="53.401" viewBox="0 0 54.794 53.401">
  <g id="Group_24273" data-name="Group 24273">
    <path id="Path_41916" data-name="Path 41916" d="M24.724,31.215H31.7a8.334,8.334,0,0,1,.012-1.358,2.641,2.641,0,0,1,2.767-2.2c2.43-.013,4.86-.016,7.29.006a2.079,2.079,0,0,0,1.435-.424,2.714,2.714,0,0,1,.462-.3,1.96,1.96,0,0,0,1.258-1.767A7.436,7.436,0,0,1,45.9,22.9c-2.3-2.315-2.507-4.947-.435-6.89a4.438,4.438,0,0,1,6.37.315,4.488,4.488,0,0,1-.891,6.681,3.885,3.885,0,0,1,1.2,2.274,7.905,7.905,0,0,1,.054.88c0,2.964-.038,5.929.013,8.893a8.637,8.637,0,0,1-3.1,7.1c1.18-.054,2.261.234,3.274-.264a2.585,2.585,0,0,0,1.489-2.508q-.006-6.049,0-12.1c0-.146,0-.294,0-.441.007-.689.342-1.1.885-1.1s.879.417.88,1.106c0,4.217.012,8.434,0,12.65a4.38,4.38,0,0,1-4.464,4.431c-1.359.007-2.717,0-4.142,0v9.525c0,1.008-.258,1.262-1.285,1.265-.571,0-1.141.006-1.712,0-.838-.011-1.127-.3-1.128-1.138q-.006-4.474,0-8.949v-.7c-.481,0-.9-.023-1.318.006-.475.033-.619.435-.733.8-.388,1.246-.75,2.5-1.119,3.751q-.78,2.645-1.554,5.291c-.226.769-.448.938-1.268.938q-8.67,0-17.341,0c-.812,0-1.029-.17-1.258-.95q-1.268-4.311-2.535-8.622c-.042-.141-.087-.281-.132-.421a.966.966,0,0,0-1.134-.8,7.675,7.675,0,0,1-.919.006v.659q0,4.446,0,8.893c0,.975-.264,1.232-1.254,1.237-.57,0-1.141.005-1.712,0-.871-.01-1.159-.3-1.159-1.167q0-4.474,0-8.949v-.673c-.267,0-.5,0-.731,0a37.519,37.519,0,0,1-4.3-.115A4.212,4.212,0,0,1,.859,39.6C.839,35.329.85,31.057.853,26.785c0-.639.362-1.046.89-1.039s.872.412.873,1.059q0,6.213,0,12.429a2.656,2.656,0,0,0,2.944,2.932c.562,0,1.125,0,1.706,0-.029-.09-.03-.133-.051-.151a8.523,8.523,0,0,1-2.942-6.968c.051-2.8.036-5.6,0-8.4a4.31,4.31,0,0,1,1.27-3.607,4.529,4.529,0,0,1-.669-6.965,4.461,4.461,0,1,1,5.617,6.889,15.691,15.691,0,0,1,.883,1.428,2.28,2.28,0,0,1,.269,1.112c-.044.583.28.807.675,1.12a4.95,4.95,0,0,0,3.527,1.043c1.928-.1,3.87.056,5.8-.046a2.816,2.816,0,0,1,3.078,3.591m-2.109,21.7H33.853V35.624H22.614Zm13.05-.041c.879.175.878.174,1.1-.572q.7-2.378,1.407-4.755c.362-1.214.688-2.442,1.117-3.632a2.445,2.445,0,0,1,2.579-1.754c.624.024,1.251,0,1.876,0A6.442,6.442,0,0,0,50.434,35.5q.006-4.637,0-9.274a4.981,4.981,0,0,0-.014-.606A1.91,1.91,0,0,0,48.632,23.9a1.8,1.8,0,0,0-1.925,1.4c.091.006.177.014.264.019a2.682,2.682,0,0,1,1.356,5c-.459.306-.916.616-1.393.893a.66.66,0,0,0-.366.662q.028,1.905.005,3.81a2.561,2.561,0,0,1-2.613,2.625c-.386.006-.773-.005-1.159.011a5.038,5.038,0,0,0-4.1,2.145,8.127,8.127,0,0,0-1.055,1.8c-.611,1.612-1.132,3.258-1.68,4.893a3.961,3.961,0,0,0-.294,1.114c-.033,1.526-.013,3.052-.013,4.606M9.795,25.244a1.88,1.88,0,0,0-2.179-1.316,1.9,1.9,0,0,0-1.557,1.935c-.01,3.351-.039,6.7.009,10.052a6.316,6.316,0,0,0,5.394,6.139,25.532,25.532,0,0,0,3.3.107,2.388,2.388,0,0,1,2.24,1.339,5.709,5.709,0,0,1,.433,1.07c.773,2.588,1.532,5.18,2.3,7.772.2.7.3.744,1.093.511-.066-2.308.232-4.636-.637-6.908a25.414,25.414,0,0,0-2.075-5.028,5.1,5.1,0,0,0-3.328-2.445,12.641,12.641,0,0,0-2.14-.158,2.586,2.586,0,0,1-2.733-2.736c-.006-1.123-.044-2.248.015-3.367a1.135,1.135,0,0,0-.685-1.217,9.479,9.479,0,0,1-1.34-.872A2.539,2.539,0,0,1,6.866,27.6a2.564,2.564,0,0,1,1.872-2.174,7.924,7.924,0,0,1,1.056-.182m10.92,16.8.082-.028V35.613c-.215-.01-.412-.026-.61-.027-1.269,0-2.539.007-3.809,0-.73-.007-1.036-.324-1.048-1.049-.007-.49,0-.982,0-1.442l-3.65-.268c0,.8,0,1.7,0,2.6,0,.864.252,1.126,1.115,1.115a8.809,8.809,0,0,1,3.362.483,7.993,7.993,0,0,1,4.22,4.3c.117.238.225.482.338.724M35.7,35.585V42.1c.409-.748.746-1.438,1.151-2.086a6.628,6.628,0,0,1,4.178-3.2,17.613,17.613,0,0,1,2.843-.267c.489-.03.882-.213.907-.7.054-1.051.016-2.107.016-3.233-1.186.653-2.412.27-3.636.444,0,.377,0,.74,0,1.1,0,1.215-.2,1.419-1.4,1.419-1.339,0-2.679,0-4.06,0M17.638,31.237v.011c1.509,0,3.018.007,4.528,0a.863.863,0,0,0,.888-.863.89.89,0,0,0-.806-.95,4.286,4.286,0,0,0-.551-.018c-2.467,0-4.933-.012-7.4.007a2.6,2.6,0,0,1-1.6-.462c-.814-.568-1.662-1.086-2.5-1.618-.6-.382-1.144-.319-1.448.155s-.149.99.46,1.385c1.064.691,2.122,1.394,3.208,2.051a2.166,2.166,0,0,0,1.025.293c1.4.033,2.8.013,4.2.013m21.172.012c1.435,0,2.87.01,4.3-.01a1.7,1.7,0,0,0,.829-.212c1.142-.7,2.266-1.438,3.388-2.174a.927.927,0,0,0,.4-1.355.951.951,0,0,0-1.406-.172c-.915.582-1.809,1.2-2.742,1.75a2.379,2.379,0,0,1-1.127.333c-2.63.029-5.261.012-7.891.017-.734,0-1.132.331-1.135.909s.394.91,1.127.912c1.417.005,2.832,0,4.249,0m-30.839-9.3A2.686,2.686,0,1,0,5.3,19.272a2.7,2.7,0,0,0,2.67,2.675m40.528,0a2.686,2.686,0,1,0-2.685-2.711A2.7,2.7,0,0,0,48.5,21.947M17.127,33.767H39.361v-.721H17.127Zm-5.87,19.14h.523V43.951h-.523Zm33.447.016h.515V43.952H44.7Z" transform="translate(-0.847 -1.326)" fill="#34B37E"/>
    <path id="Path_41917" data-name="Path 41917" d="M12.681,15.4c-.356-.032-.667-.047-.975-.09a2.529,2.529,0,0,1-2.122-2.1,5.687,5.687,0,0,1-.051-.825q-.006-3.892,0-7.785A2.645,2.645,0,0,1,12.5,1.638q5.851,0,11.7,0a2.632,2.632,0,0,1,2.968,2.948q0,3.949,0,7.9A2.6,2.6,0,0,1,24.3,15.358c-2.134.011-4.268.013-6.4-.006a1.269,1.269,0,0,0-1.055.438c-.806.884-1.652,1.731-2.479,2.595a.92.92,0,0,1-1.684-.66c.012-.771,0-1.541,0-2.326m1.767.207c.518-.489,1.016-.9,1.441-1.38a1.8,1.8,0,0,1,1.493-.643c2.319.03,4.639.016,6.958.008.8,0,1.06-.273,1.061-1.063q0-4.032,0-8.064c0-.785-.268-1.048-1.07-1.057-.755-.008-1.51,0-2.264,0q-4.833,0-9.664,0c-.781,0-1.094.246-1.1.924q-.02,4.17,0,8.34c0,.624.3.89.933.919.4.018.81,0,1.215.009a.9.9,0,0,1,.992.992c.01.327,0,.653,0,1.015" transform="translate(-0.643 -1.636)" fill="#34B37E"/>
    <path id="Path_41918" data-name="Path 41918" d="M43.806,9.453a8.16,8.16,0,0,1-1.12,4.506,1.051,1.051,0,0,0-.114.927c.246.846.472,1.7.694,2.552.268,1.028-.242,1.546-1.26,1.285-.552-.14-1.1-.284-1.65-.442a9.475,9.475,0,0,0-3.813-.383,7.976,7.976,0,0,1-8.855-6.53,8.128,8.128,0,0,1,15.936-3.2c.1.485.138.982.18,1.288m-2.577,7.229c-.177-.667-.3-1.224-.476-1.761a1.679,1.679,0,0,1,.245-1.6,6.3,6.3,0,0,0-.076-7.062,6.366,6.366,0,1,0-3.467,9.721,2.317,2.317,0,0,1,1.07-.005c.873.192,1.733.448,2.7.707" transform="translate(-0.22 -1.634)" fill="#34B37E"/>
    <path id="Path_41929" data-name="Path 41929" d="M18.247,7.257c-1.23,0-2.462,0-3.692,0-.695,0-1.087-.333-1.078-.894.009-.537.4-.869,1.054-.87q3.72-.008,7.44,0c.675,0,1.1.363,1.087.9s-.422.861-1.12.862c-1.23,0-2.462,0-3.692,0" transform="translate(-0.55 -1.545)" fill="#34B37E"/>
    <path id="Path_41930" data-name="Path 41930" d="M18.286,9.467c1.23,0,2.462,0,3.692,0,.684,0,1.1.354,1.08.9-.016.521-.426.863-1.071.864q-3.72.008-7.439,0c-.683,0-1.084-.352-1.071-.909.012-.535.394-.851,1.061-.854,1.249-.006,2.5,0,3.747,0" transform="translate(-0.55 -1.451)" fill="#34B37E"/>
    <path id="Path_41931" data-name="Path 41931" d="M35.6,12.551c-1.031,0-2.06,0-3.091,0-.664,0-1.036-.325-1.035-.876s.38-.884,1.037-.887q3.063-.011,6.126,0c.69,0,1.078.349,1.063.916-.014.54-.39.844-1.064.847-1.012,0-2.024,0-3.036,0" transform="translate(-0.127 -1.42)" fill="#34B37E"/>
    <path id="Path_41932" data-name="Path 41932" d="M35.572,8.584c-1.03,0-2.06.007-3.09,0-.64-.005-1-.314-1.013-.842-.016-.551.352-.911,1.007-.915q3.089-.018,6.179,0c.671,0,1.039.335,1.041.883s-.367.871-1.034.877c-1.03.008-2.06,0-3.09,0" transform="translate(-0.127 -1.514)" fill="#34B37E"/>
  </g>
</svg>
