<svg xmlns="http://www.w3.org/2000/svg" width="85" height="101.751" viewBox="0 0 85 101.751">
  <g id="Group_24319" data-name="Group 24319" transform="translate(0 -0.249)">
    <path id="Path_42689" data-name="Path 42689" d="M1,52.809a1,1,0,0,0-1-1V48.8a1,1,0,0,0,1-1V45.3a.933.933,0,0,1,.122-.473,1,1,0,0,0,.1-.765,1,1,0,0,0,.7.307.865.865,0,0,1,.448.139L4.256,45.7a1,1,0,0,0,1.379-.314l2.082,1.31a1,1,0,0,0,.314,1.379L11.8,50.447a1,1,0,0,0,1.379-.314l2.082,1.31a1,1,0,0,0,.314,1.379l1.887,1.188a2.877,2.877,0,0,0,3.068,0l1.887-1.187a1,1,0,0,0,.314-1.379l2.081-1.31a1,1,0,0,0,1.379.314l3.774-2.375a1,1,0,0,0,.314-1.379l2.082-1.31a1,1,0,0,0,1.379.314l1.887-1.187a.865.865,0,0,1,.448-.139,1,1,0,0,0,.7-.307,1,1,0,0,0,.1.765A.933.933,0,0,1,37,45.3v2.5a1,1,0,0,0,1,1v3.006a1,1,0,0,0-1,1v2.5a.934.934,0,0,1-.431.792l-1.425.9a1,1,0,0,0-.314,1.379l-1.157.728a1,1,0,0,0-1.379-.314l-2.85,1.793a1,1,0,0,0-.314,1.379l-1.157.728a1,1,0,0,0-1.379-.314l-2.85,1.793a1,1,0,0,0-.314,1.379l-1.157.728a1,1,0,0,0-1.379-.314l-1.425.9a.877.877,0,0,1-.938,0l-1.425-.9a1,1,0,0,0-1.379.314l-1.157-.728a1,1,0,0,0-.314-1.379l-2.85-1.793a1,1,0,0,0-1.379.314L8.87,61.966a1,1,0,0,0-.314-1.379l-2.85-1.793a1,1,0,0,0-1.379.314L3.17,58.379A1,1,0,0,0,2.856,57l-1.425-.9A.934.934,0,0,1,1,55.312ZM.976,43.635l-.012-.012.007,0Zm36.048,0,0-.016.007,0ZM2.369,1.139,2.9.293l-.533.846L4.256,2.326a1,1,0,0,0,1.379-.314l2.082,1.31A1,1,0,0,0,8.03,4.7L11.8,7.077a1,1,0,0,0,1.379-.314l2.082,1.31a1,1,0,0,0,.314,1.379l1.887,1.188a2.877,2.877,0,0,0,3.068,0l1.887-1.188a1,1,0,0,0,.314-1.379l2.081-1.31a1,1,0,0,0,1.379.314L29.97,4.7a1,1,0,0,0,.314-1.379l2.082-1.31a1,1,0,0,0,1.379.314l1.887-1.188A.864.864,0,0,1,36.079,1a1,1,0,0,0,.7-.307,1,1,0,0,0,.1.765A.933.933,0,0,1,37,1.931v2.5a1,1,0,0,0,1,1V8.439a1,1,0,0,0-1,1v2.5a.934.934,0,0,1-.431.792l-1.425.9a1,1,0,0,0-.314,1.379l-1.157.728a1,1,0,0,0-1.379-.314l-2.85,1.793A1,1,0,0,0,29.13,18.6l-1.157.728a1,1,0,0,0-1.379-.314L23.744,20.8a1,1,0,0,0-.314,1.379l-1.157.728a1,1,0,0,0-1.379-.314l-1.425.9a.877.877,0,0,1-.938,0l-1.425-.9a1,1,0,0,0-1.379.314l-1.157-.728a1,1,0,0,0-.314-1.379l-2.85-1.793a1,1,0,0,0-1.379.314L8.87,18.6a1,1,0,0,0-.314-1.379l-2.85-1.793a1,1,0,0,0-1.379.314L3.17,15.009a1,1,0,0,0-.314-1.379l-1.425-.9-.524.833.524-.833A.934.934,0,0,1,1,11.942v-2.5a1,1,0,0,0-1-1V5.433a1,1,0,0,0,1-1v-2.5a.933.933,0,0,1,.122-.473,1,1,0,0,0,.1-.765,1,1,0,0,0,.7.307A.864.864,0,0,1,2.369,1.139ZM37.024.265l0-.016.007,0ZM1,31.124a1,1,0,0,0-1-1V27.118a1,1,0,0,0,1-1v-2.5a.933.933,0,0,1,.122-.473,1,1,0,0,0,.1-.765,1,1,0,0,0,.7.307.865.865,0,0,1,.448.139l1.887,1.188A1,1,0,0,0,5.635,23.7l2.082,1.31a1,1,0,0,0,.314,1.379L11.8,28.762a1,1,0,0,0,1.379-.314l2.082,1.31a1,1,0,0,0,.314,1.379l1.887,1.188a2.877,2.877,0,0,0,3.068,0l1.887-1.188a1,1,0,0,0,.314-1.379l2.081-1.31a1,1,0,0,0,1.379.314l3.774-2.375a1,1,0,0,0,.314-1.379l2.082-1.31a1,1,0,0,0,1.379.314l1.887-1.187a.865.865,0,0,1,.448-.139,1,1,0,0,0,.7-.307,1,1,0,0,0,.1.765.933.933,0,0,1,.122.472v2.5a1,1,0,0,0,1,1v3.006a1,1,0,0,0-1,1v2.5a.934.934,0,0,1-.431.792l-1.425.9a1,1,0,0,0-.314,1.379l-1.157.728a1,1,0,0,0-1.379-.314L29.444,38.9a1,1,0,0,0-.314,1.379l-1.157.728a1,1,0,0,0-1.379-.314l-2.85,1.793a1,1,0,0,0-.314,1.379l-1.157.728a1,1,0,0,0-1.379-.314l-1.425.9a.877.877,0,0,1-.938,0l-1.425-.9a1,1,0,0,0-1.379.314l-1.157-.728a1,1,0,0,0-.314-1.379L11.406,40.7a1,1,0,0,0-1.379.314L8.87,40.281A1,1,0,0,0,8.556,38.9l-2.85-1.793a1,1,0,0,0-1.379.314L3.17,36.694a1,1,0,0,0-.314-1.379l-1.425-.9A.934.934,0,0,1,1,33.627Zm-.028-9.19,0,.016-.012-.012Zm36.052.016,0-.016.007,0ZM.976.265.964.253l.007,0Z" fill="#f5f9fc"/>
    <path id="Path_42691" data-name="Path 42691" d="M85,102V87.634L66,75.828,47,87.634V102L66,90.193Z" fill="rgba(0,101,255,0.25)"/>
    <path id="Path_42692" data-name="Path 42692" d="M85,66.221V80.586L66,68.779,47,80.586V66.221L66,54.414Z" fill="rgba(0,101,255,0.25)"/>
    <path id="Path_42693" data-name="Path 42693" d="M85,44.807V59.172L66,47.366,47,59.172V44.807L66,33Z" fill="rgba(0,101,255,0.25)"/>
  </g>
</svg>
