<svg id="Group_42002" data-name="Group 42002" xmlns="http://www.w3.org/2000/svg" xmlns:xlink="http://www.w3.org/1999/xlink" width="64" height="64" viewBox="0 0 64 64">
  <defs>
    <clipPath id="clip-path">
      <rect id="Rectangle_26481" data-name="Rectangle 26481" width="64" height="64" fill="none"/>
    </clipPath>
  </defs>
  <g id="Group_42001" data-name="Group 42001" clip-path="url(#clip-path)">
    <g id="Group_42000" data-name="Group 42000">
      <g id="Group_41999" data-name="Group 41999" clip-path="url(#clip-path)">
        <g id="Group_41998" data-name="Group 41998">
          <g id="Group_41997" data-name="Group 41997" clip-path="url(#clip-path)">
            <path id="Path_69251" data-name="Path 69251" d="M64,36.622V64H0V23.371A2.985,2.985,0,0,0,3.377,25.5c.6-.045,1.212-.007,1.92-.007A8.492,8.492,0,0,0,3.7,30.856q.031,2.718,0,5.437a9.923,9.923,0,0,0,2.11,6.268A1.536,1.536,0,0,1,6.1,43.4c.03,1.333,0,2.666.018,4a3.55,3.55,0,0,0,3.618,3.592c1.166.015,2.333.008,3.5,0A3.591,3.591,0,0,0,17,47.228c0-.532,0-1.065,0-1.586.158-.018.219-.031.281-.031q9.656,0,19.309.013a1.043,1.043,0,0,1,.7.378,27.478,27.478,0,0,0,10.67,8.032,1.76,1.76,0,0,0,1.546,0,30.642,30.642,0,0,0,6.925-4.187,19.513,19.513,0,0,0,6.736-9.4c.381-1.241.562-2.545.834-3.82" fill="#fff"/>
            <path id="Path_69252" data-name="Path 69252" d="M0,21.12V0H64V23.245a.542.542,0,0,1-.1-.151,5.022,5.022,0,0,0-3-3.594c-2.169-1-4.324-2.038-6.486-3.058a12.709,12.709,0,0,0-7.4-1.233.756.756,0,0,1-.6-.321c-.347-.59-.638-1.214-.928-1.837a5.351,5.351,0,0,0-5.282-3.356c-4.143.027-8.286.007-12.429.007q-5.215,0-10.431,0a5.108,5.108,0,0,0-4.919,3.017C11.161,15.294,9.94,17.89,8.7,20.477c-.085.177-.186.348-.266.5-.511-.43-.957-.866-1.463-1.216a6.363,6.363,0,0,0-3.595-.779A3.037,3.037,0,0,0,0,21.12" fill="#fff"/>
            <path id="Path_69253" data-name="Path 69253" d="M0,21.12a3.038,3.038,0,0,1,3.374-2.144,6.363,6.363,0,0,1,3.595.779c.505.351.952.787,1.463,1.216.079-.147.18-.317.266-.494,1.242-2.586,2.463-5.183,3.728-7.758A5.1,5.1,0,0,1,17.345,9.7q5.216-.006,10.43,0c4.144,0,8.287.02,12.43-.008a5.349,5.349,0,0,1,5.282,3.357c.289.621.58,1.246.927,1.835a.763.763,0,0,0,.6.323,12.693,12.693,0,0,1,7.4,1.231c2.161,1.021,4.317,2.056,6.486,3.06a5.02,5.02,0,0,1,3,3.593.531.531,0,0,0,.1.152V36.622c-.273,1.275-.453,2.579-.834,3.82a19.526,19.526,0,0,1-6.736,9.4,30.642,30.642,0,0,1-6.925,4.187,1.762,1.762,0,0,1-1.547,0A27.482,27.482,0,0,1,37.289,46a1.047,1.047,0,0,0-.7-.378q-9.654-.03-19.309-.013c-.062,0-.124.013-.281.031,0,.521,0,1.054,0,1.586A3.591,3.591,0,0,1,13.231,51c-1.167.006-2.333.013-3.5,0A3.551,3.551,0,0,1,6.114,47.4c-.018-1.333.012-2.667-.018-4a1.536,1.536,0,0,0-.282-.843A9.917,9.917,0,0,1,3.7,36.293q.031-2.718,0-5.437A8.479,8.479,0,0,1,5.3,25.5c-.708,0-1.317-.038-1.92.007A2.984,2.984,0,0,1,0,23.371ZM33.679,36.606H23.069a3.49,3.49,0,0,1-.623-.023.9.9,0,0,1-.829-1,.929.929,0,0,1,.875-.965,4.184,4.184,0,0,1,.624-.014H33.561v-8.78c-.147-.015-.248-.036-.349-.036q-12.716,0-25.432.011a.935.935,0,0,0-.624.3,6,6,0,0,0-1.534,3.222,23.788,23.788,0,0,0-.115,2.864,54.178,54.178,0,0,0,.134,5.426,6.813,6.813,0,0,0,6.887,6.026c7.476-.106,14.954-.03,22.432-.03H35.7c-.384-.9-.776-1.724-1.082-2.578a.711.711,0,0,0-.815-.541c-3.582.017-7.165.01-10.747.009a4.05,4.05,0,0,1-.562-.011.9.9,0,0,1-.875-.954.945.945,0,0,1,.827-1.013,2.933,2.933,0,0,1,.623-.021H33.955c-.093-.635-.178-1.223-.276-1.891m-.1-12.747a4.9,4.9,0,0,1,3.078-4.338c1.095-.5,2.184-1.022,3.274-1.537,1.57-.741,3.139-1.485,4.738-2.241-.277-.587-.55-1.123-.785-1.675a3.682,3.682,0,0,0-3.78-2.38c-7.474.036-14.948.015-22.422.015-.208,0-.416,0-.624.013A3.225,3.225,0,0,0,14.132,13.7q-2.112,4.417-4.247,8.823c-.213.439-.451.867-.694,1.332Zm2.03,6.263c0,1.708,0,3.416,0,5.125a14.913,14.913,0,0,0,1.775,7.135c2.471,4.641,6.381,7.65,11.126,9.681a1.083,1.083,0,0,0,.758-.075,27.033,27.033,0,0,0,5.709-3.433,17.7,17.7,0,0,0,7.2-13.776c.161-3.575.042-7.164.019-10.747a2.8,2.8,0,0,0-1.749-2.6c-2.474-1.189-4.942-2.4-7.451-3.507a9.716,9.716,0,0,0-8.234.026c-2.5,1.132-4.974,2.325-7.454,3.5a2.766,2.766,0,0,0-1.7,2.735c.02,1.979.005,3.958.006,5.937M8.009,44.369c0,1.124-.033,2.1.01,3.078A1.443,1.443,0,0,0,9.4,48.884q2.029.029,4.06-.007a1.455,1.455,0,0,0,1.493-1.254,18.689,18.689,0,0,0,.017-2.121c-2.367-.041-4.74.279-6.956-1.133M4.71,23.6c.583,0,1.169.034,1.747-.016a1.1,1.1,0,0,0,.712-.354c.085-.108-.061-.452-.172-.65a3.323,3.323,0,0,0-3.4-1.6c-1.6.064-1.654.065-1.6,1.653a.872.872,0,0,0,.961.968c.583.014,1.166,0,1.749,0"/>
            <path id="Path_69254" data-name="Path 69254" d="M33.679,36.606c.1.667.183,1.256.276,1.891H23.066a2.86,2.86,0,0,0-.622.021.944.944,0,0,0-.826,1.013.9.9,0,0,0,.875.954,4.2,4.2,0,0,0,.562.011c3.581,0,7.164.007,10.746-.009a.711.711,0,0,1,.815.541c.306.854.7,1.677,1.081,2.578h-.738c-7.476,0-14.955-.076-22.431.03a6.812,6.812,0,0,1-6.886-6.026,53.881,53.881,0,0,1-.134-5.426,23.788,23.788,0,0,1,.115-2.864A5.988,5.988,0,0,1,7.157,26.1a.94.94,0,0,1,.624-.3q12.714-.021,25.43-.01c.1,0,.2.02.35.036v8.78H23.116a4.171,4.171,0,0,0-.623.014.927.927,0,0,0-.875.964.9.9,0,0,0,.828,1,3.4,3.4,0,0,0,.623.023q4.935,0,9.872,0Zm-19.955-.975v0c1.247,0,2.5.044,3.742-.016a1.22,1.22,0,0,0,1.305-1.1,3.636,3.636,0,0,0-2.887-4.122q-2.5-.542-5-1.07a2.221,2.221,0,0,0-2.769,2.23c-.012.625-.007,1.25,0,1.874.009,1.4.6,2.1,1.995,2.193,1.2.076,2.411.016,3.618.016" fill="#fff"/>
            <path id="Path_69255" data-name="Path 69255" d="M33.58,23.859H9.191c.243-.466.481-.893.694-1.333q2.128-4.407,4.246-8.822a3.225,3.225,0,0,1,2.928-1.988c.208-.01.416-.013.624-.013,7.474,0,14.948.02,22.422-.015a3.682,3.682,0,0,1,3.78,2.38c.235.552.508,1.087.785,1.674-1.6.757-3.168,1.5-4.738,2.242-1.09.514-2.179,1.032-3.274,1.537a4.9,4.9,0,0,0-3.078,4.338" fill="#fff"/>
            <path id="Path_69256" data-name="Path 69256" d="M35.61,30.122c0-1.979.014-3.958-.006-5.937a2.766,2.766,0,0,1,1.7-2.735c2.48-1.176,4.953-2.369,7.454-3.5A9.716,9.716,0,0,1,53,17.923c2.509,1.111,4.977,2.318,7.451,3.507a2.8,2.8,0,0,1,1.749,2.6c.023,3.583.142,7.172-.019,10.748a17.692,17.692,0,0,1-7.2,13.775,26.991,26.991,0,0,1-5.709,3.433,1.08,1.08,0,0,1-.759.076c-4.744-2.032-8.654-5.04-11.125-9.681a14.914,14.914,0,0,1-1.775-7.136c0-1.708,0-3.416,0-5.124m23.427.215h.072c0-1.791-.011-3.583.006-5.374a1.3,1.3,0,0,0-.828-1.326c-2.171-1-4.323-2.046-6.5-3.031a7.072,7.072,0,0,0-6.048-.006c-2.2,1-4.359,2.066-6.537,3.1a1.288,1.288,0,0,0-.816,1.275c.014,3.436-.006,6.873.013,10.309a12.387,12.387,0,0,0,1.476,5.875,18.853,18.853,0,0,0,8.313,7.673,1.377,1.377,0,0,0,1.366-.112,21.6,21.6,0,0,0,5.679-4.24,12.832,12.832,0,0,0,3.785-8.152c.114-1.992.021-4,.021-5.994" fill="#fff"/>
            <path id="Path_69257" data-name="Path 69257" d="M8.009,44.369c2.216,1.412,4.589,1.092,6.956,1.133a18.689,18.689,0,0,1-.017,2.121,1.455,1.455,0,0,1-1.493,1.254q-2.029.036-4.061.007a1.443,1.443,0,0,1-1.375-1.437c-.043-.976-.01-1.954-.01-3.078" fill="#fff"/>
            <path id="Path_69258" data-name="Path 69258" d="M4.71,23.6c-.583,0-1.166.011-1.749,0A.871.871,0,0,1,2,22.634c-.052-1.588,0-1.589,1.6-1.653a3.323,3.323,0,0,1,3.4,1.6c.111.2.257.542.172.65a1.1,1.1,0,0,1-.712.354c-.578.051-1.164.016-1.747.016" fill="#fff"/>
            <path id="Path_69259" data-name="Path 69259" d="M13.724,35.631c-1.206,0-2.416.06-3.618-.016-1.4-.088-1.986-.792-1.995-2.193-.005-.624-.01-1.249,0-1.874a2.222,2.222,0,0,1,2.77-2.23q2.5.526,5,1.07a3.634,3.634,0,0,1,2.888,4.122,1.219,1.219,0,0,1-1.3,1.1c-1.245.06-2.495.016-3.743.016v0m3.05-1.982a1.618,1.618,0,0,0-1.175-1.4c-1.694-.415-3.4-.77-5.114-1.117-.134-.027-.45.19-.457.307-.043.716-.022,1.435-.022,2.206Z"/>
            <path id="Path_69260" data-name="Path 69260" d="M59.037,30.337c0,2,.093,4-.021,5.994a12.835,12.835,0,0,1-3.785,8.153,21.57,21.57,0,0,1-5.679,4.239,1.377,1.377,0,0,1-1.366.112,18.848,18.848,0,0,1-8.313-7.673A12.383,12.383,0,0,1,38.4,35.288c-.019-3.437,0-6.874-.013-10.31A1.288,1.288,0,0,1,39.2,23.7c2.178-1.036,4.34-2.107,6.537-3.1a7.069,7.069,0,0,1,6.048.007c2.179.984,4.331,2.027,6.5,3.03a1.3,1.3,0,0,1,.828,1.327c-.017,1.791-.006,3.582-.006,5.373h-.072M57.208,31c0-1.728-.011-3.457.009-5.185a.714.714,0,0,0-.482-.755c-1.786-.842-3.56-1.712-5.339-2.568a5.736,5.736,0,0,0-5.23.017c-1.759.852-3.512,1.717-5.281,2.547a.741.741,0,0,0-.5.793c.02,3.1,0,6.205.013,9.308a11.049,11.049,0,0,0,2.593,7.126,18.387,18.387,0,0,0,5.461,4.4.935.935,0,0,0,.768-.033A18.409,18.409,0,0,0,53.938,43a11.442,11.442,0,0,0,3.273-8.189c-.019-1.27,0-2.541,0-3.811"/>
            <path id="Path_69261" data-name="Path 69261" d="M16.774,33.649H10.006c0-.771-.021-1.49.022-2.206.007-.117.323-.334.457-.307,1.71.347,3.42.7,5.114,1.117a1.618,1.618,0,0,1,1.175,1.4" fill="#fff"/>
            <path id="Path_69262" data-name="Path 69262" d="M57.208,31c0,1.27-.015,2.541,0,3.811A11.441,11.441,0,0,1,53.938,43a18.37,18.37,0,0,1-4.723,3.647.935.935,0,0,1-.768.034,18.386,18.386,0,0,1-5.46-4.4,11.045,11.045,0,0,1-2.594-7.126c-.01-3.1.007-6.2-.013-9.308a.74.74,0,0,1,.506-.792c1.768-.831,3.521-1.7,5.28-2.547a5.736,5.736,0,0,1,5.23-.018c1.78.856,3.553,1.726,5.339,2.568a.713.713,0,0,1,.482.755c-.02,1.728-.009,3.457-.009,5.185M47.9,37.193c-.95-.726-1.837-1.412-2.735-2.084a1.682,1.682,0,0,0-.646-.349.978.978,0,0,0-.717,1.805c1.113.875,2.247,1.724,3.373,2.582.819.625,1.325.565,1.953-.249,1.017-1.319,2.026-2.644,3.04-3.966.747-.975,1.5-1.943,2.241-2.926a1,1,0,1,0-1.542-1.256c-.18.2-.335.424-.5.639l-4.467,5.8" fill="#fff"/>
            <path id="Path_69263" data-name="Path 69263" d="M47.9,37.193l4.467-5.8c.165-.215.32-.439.5-.639a1,1,0,1,1,1.542,1.256c-.737.983-1.494,1.951-2.241,2.926-1.014,1.322-2.023,2.647-3.04,3.966-.628.814-1.134.874-1.953.249-1.126-.858-2.26-1.707-3.373-2.582a.978.978,0,0,1,.717-1.805,1.682,1.682,0,0,1,.646.349c.9.672,1.785,1.358,2.735,2.084"/>
          </g>
        </g>
      </g>
    </g>
  </g>
</svg>
