<svg xmlns="http://www.w3.org/2000/svg" width="140" height="137" viewBox="0 0 140 137">
  <g id="dots" transform="translate(-90 -795)" opacity="0.15">
    <circle id="Ellipse_6" data-name="Ellipse 6" cx="5" cy="5" r="5" transform="translate(90 795)" fill="#0065ff"/>
    <circle id="Ellipse_7" data-name="Ellipse 7" cx="5" cy="5" r="5" transform="translate(90 836)" fill="#0065ff"/>
    <circle id="Ellipse_8" data-name="Ellipse 8" cx="5" cy="5" r="5" transform="translate(90 879)" fill="#0065ff"/>
    <circle id="Ellipse_9" data-name="Ellipse 9" cx="5" cy="5" r="5" transform="translate(90 922)" fill="#0065ff"/>
    <circle id="Ellipse_10" data-name="Ellipse 10" cx="5" cy="5" r="5" transform="translate(133 795)" fill="#0065ff"/>
    <circle id="Ellipse_11" data-name="Ellipse 11" cx="5" cy="5" r="5" transform="translate(133 836)" fill="#0065ff"/>
    <circle id="Ellipse_12" data-name="Ellipse 12" cx="5" cy="5" r="5" transform="translate(133 879)" fill="#0065ff"/>
    <circle id="Ellipse_13" data-name="Ellipse 13" cx="5" cy="5" r="5" transform="translate(133 922)" fill="#0065ff"/>
    <circle id="Ellipse_14" data-name="Ellipse 14" cx="5" cy="5" r="5" transform="translate(177 795)" fill="#0065ff"/>
    <circle id="Ellipse_15" data-name="Ellipse 15" cx="5" cy="5" r="5" transform="translate(177 836)" fill="#0065ff"/>
    <circle id="Ellipse_16" data-name="Ellipse 16" cx="5" cy="5" r="5" transform="translate(177 879)" fill="#0065ff"/>
    <circle id="Ellipse_17" data-name="Ellipse 17" cx="5" cy="5" r="5" transform="translate(177 922)" fill="#0065ff"/>
    <circle id="Ellipse_18" data-name="Ellipse 18" cx="5" cy="5" r="5" transform="translate(220 795)" fill="#0065ff"/>
    <circle id="Ellipse_19" data-name="Ellipse 19" cx="5" cy="5" r="5" transform="translate(220 836)" fill="#0065ff"/>
    <circle id="Ellipse_20" data-name="Ellipse 20" cx="5" cy="5" r="5" transform="translate(220 879)" fill="#0065ff"/>
    <circle id="Ellipse_21" data-name="Ellipse 21" cx="5" cy="5" r="5" transform="translate(220 922)" fill="#0065ff"/>
  </g>
</svg>
