<svg id="Group_41990" data-name="Group 41990" xmlns="http://www.w3.org/2000/svg" xmlns:xlink="http://www.w3.org/1999/xlink" width="58.737" height="58.737" viewBox="0 0 58.737 58.737">
  <defs>
    <clipPath id="clip-path">
      <rect id="Rectangle_26477" data-name="Rectangle 26477" width="58.737" height="58.737" fill="none"/>
    </clipPath>
  </defs>
  <g id="Group_41989" data-name="Group 41989" clip-path="url(#clip-path)">
    <path id="Path_69236" data-name="Path 69236" d="M0,26.73V22.256c.558.819,1.181,1.022,1.8.586a1.376,1.376,0,0,0,.5-1.271q-.009-8.862,0-17.723c0-1.186.36-1.553,1.529-1.553H30.219a.941.941,0,0,1,.053.181q.006,3.212.009,6.424a3.281,3.281,0,0,0,3.479,3.489c1.988.005,3.976,0,5.965,0h.6a1.737,1.737,0,0,1,.044.234c0,4.818,0,9.636.015,14.454,0,.413-.236.464-.507.549-2.623.817-5.243,1.645-7.872,2.441-.714.215-1.265.522-1.288,1.366H8.528c-.988,0-1.528.409-1.525,1.15s.546,1.142,1.535,1.144H30.7v4.13H8.63a4.726,4.726,0,0,0-.63.015,1.14,1.14,0,0,0-.024,2.259,4.13,4.13,0,0,0,.63.019H30.781a17.67,17.67,0,0,0,3.089,11.7H3.88c-1.245,0-1.585-.346-1.585-1.611V32.863c0-.21.007-.421,0-.631a1.11,1.11,0,0,0-.852-1.094,1.082,1.082,0,0,0-1.246.479c-.066.09-.129.184-.192.276V27.419c.063.091.126.183.191.272a1.087,1.087,0,0,0,1.289.468,1.134,1.134,0,0,0,0-2.169,1.085,1.085,0,0,0-1.289.467c-.066.09-.128.182-.191.273m25.811-10.9c0-1.167.009-2.272-.005-3.376a1.111,1.111,0,0,0-1.116-1.2q-2.78-.03-5.562,0a1.116,1.116,0,0,0-1.114,1.206c-.015.841,0,1.682,0,2.523v.85c-1.122,0-2.153,0-3.186,0-.984,0-1.4.412-1.4,1.389-.005,1.587,0,3.173,0,4.76,0,1.33.323,1.651,1.662,1.651h2.927c0,1.112,0,2.142,0,3.172,0,1.011.412,1.414,1.437,1.416q2.436,0,4.874,0c1.1,0,1.486-.381,1.489-1.478,0-1.025,0-2.049,0-3.11,1.14,0,2.208.006,3.275,0A1.168,1.168,0,0,0,30.4,22.322q.01-2.582,0-5.161a1.175,1.175,0,0,0-1.347-1.328c-1.049-.005-2.1,0-3.24,0M14.981,46.577q3.35,0,6.7,0c.841,0,1.361-.432,1.375-1.124.013-.711-.524-1.168-1.392-1.168q-6.642,0-13.287,0c-.839,0-1.361.437-1.374,1.127-.012.712.522,1.164,1.391,1.165q3.294,0,6.587,0" transform="translate(0 0)" fill="#fff"/>
    <path id="Path_69237" data-name="Path 69237" d="M0,31.892c.064-.092.127-.185.192-.276a1.088,1.088,0,0,1,1.248-.479,1.111,1.111,0,0,1,.851,1.095c.011.209,0,.42,0,.631V50.242c0,1.265.34,1.611,1.585,1.611H33.871a17.675,17.675,0,0,1-3.09-11.7H8.606a4.13,4.13,0,0,1-.63-.019A1.14,1.14,0,0,1,8,37.873a4.9,4.9,0,0,1,.63-.015H30.7V33.728H8.537c-.988,0-1.53-.407-1.534-1.145s.537-1.15,1.524-1.15H30.721c.022-.843.574-1.151,1.287-1.366,2.63-.8,5.25-1.624,7.873-2.441.271-.085.509-.136.507-.548-.018-4.818-.013-9.636-.015-14.455a1.6,1.6,0,0,0-.045-.233h-.6c-1.989,0-3.977,0-5.966,0A3.28,3.28,0,0,1,30.282,8.9q-.007-3.212-.009-6.424a.981.981,0,0,0-.054-.181H3.823c-1.168,0-1.528.367-1.528,1.553q0,8.862,0,17.724a1.373,1.373,0,0,1-.5,1.27c-.618.436-1.242.233-1.8-.586V2.868A3.765,3.765,0,0,1,2.868,0h28.91c.247.2.511.393.737.619q4.77,4.76,9.538,9.521a1.977,1.977,0,0,1,.628,1.522c-.017,4.779-.01,9.558-.01,14.337v.748a9.5,9.5,0,0,1,1.356-.406,3.445,3.445,0,0,1,1.437,0c4.034,1.225,8.053,2.5,12.081,3.745a1.827,1.827,0,0,1,1.192.888v12.39c-.035.164-.082.326-.1.491Q57.149,54.365,47.217,58.11c-.691.261-1.42.42-2.131.627H44.4c-.125-.041-.247-.093-.375-.122a16.8,16.8,0,0,1-7.77-4.081,1.347,1.347,0,0,0-1.009-.394q-9.979.017-19.958.008-5.85,0-11.7,0A3.266,3.266,0,0,1,.857,52.939,9.73,9.73,0,0,1,0,51.28V31.892m33.04.269c0,3.27-.005,6.5,0,9.725,0,.572.034,1.146.093,1.715A14.655,14.655,0,0,0,44.186,56.287a2.27,2.27,0,0,0,1,.021,14.674,14.674,0,0,0,11.238-13.8c.053-3.3.009-6.612.022-9.917,0-.312-.074-.472-.393-.57-3.645-1.125-7.286-2.267-10.931-3.393a1.2,1.2,0,0,0-.665-.028c-3.791,1.171-7.577,2.358-11.421,3.559M32.576,4.025c0,1.664,0,3.262,0,4.861,0,.861.352,1.206,1.223,1.208q2.2.006,4.407,0a3.493,3.493,0,0,0,.4-.041l-6.03-6.027" transform="translate(0 0)"/>
    <path id="Path_69238" data-name="Path 69238" d="M58.737,30.975a1.831,1.831,0,0,0-1.193-.888c-4.027-1.247-8.046-2.52-12.08-3.746a3.45,3.45,0,0,0-1.438,0,9.524,9.524,0,0,0-1.355.406V26c0-4.779-.008-9.558.009-14.337a1.978,1.978,0,0,0-.627-1.523Q37.271,5.392,32.515.62c-.227-.226-.491-.414-.737-.62H58.737Z" transform="translate(0 0)" fill="#fff"/>
    <path id="Path_69239" data-name="Path 69239" d="M0,51.28a9.693,9.693,0,0,0,.857,1.659A3.265,3.265,0,0,0,3.585,54.15q5.85-.009,11.7,0,9.979,0,19.959-.008a1.344,1.344,0,0,1,1.009.4,16.8,16.8,0,0,0,7.77,4.08c.127.03.25.081.375.122H0V51.28" transform="translate(0 0)" fill="#fff"/>
    <path id="Path_69240" data-name="Path 69240" d="M45.085,58.737c.711-.207,1.441-.366,2.131-.627q9.914-3.751,11.415-14.255c.024-.165.07-.327.106-.491V58.737Z" transform="translate(0 0)" fill="#fff"/>
    <path id="Path_69241" data-name="Path 69241" d="M0,26.73c.064-.091.125-.183.191-.273A1.084,1.084,0,0,1,1.48,25.99a1.133,1.133,0,0,1,0,2.168,1.084,1.084,0,0,1-1.288-.467C.126,27.6.064,27.509,0,27.418V26.73" transform="translate(0 0)"/>
    <path id="Path_69242" data-name="Path 69242" d="M2.868,0A3.762,3.762,0,0,0,0,2.868V0Z" transform="translate(0 0)" fill="#fff"/>
    <path id="Path_69243" data-name="Path 69243" d="M25.811,15.832c1.141,0,2.191,0,3.241,0A1.175,1.175,0,0,1,30.4,17.161q.009,2.58,0,5.16a1.168,1.168,0,0,1-1.31,1.309c-1.067.009-2.135,0-3.276,0,0,1.061,0,2.086,0,3.111,0,1.1-.384,1.477-1.489,1.478q-2.437,0-4.874,0c-1.025,0-1.434-.406-1.437-1.416,0-1.03,0-2.06,0-3.172H15.084c-1.339,0-1.662-.321-1.662-1.652,0-1.586,0-3.173,0-4.759,0-.977.418-1.386,1.4-1.39,1.032,0,2.063,0,3.186,0v-.85c0-.841-.01-1.682,0-2.523a1.116,1.116,0,0,1,1.114-1.206q2.781-.031,5.563,0a1.11,1.11,0,0,1,1.115,1.2c.014,1.1,0,2.209,0,3.376M15.753,18.126v3.212c1.045,0,2.054,0,3.063,0,1.1,0,1.487.379,1.489,1.473,0,1.024,0,2.049,0,3.074h3.213c0-1.031,0-2.022,0-3.013,0-1.174.363-1.534,1.543-1.535h3V18.126H25.612c-1.934,0-2.094-.159-2.094-2.076V13.568H20.305c0,1.1.006,2.16,0,3.225a1.179,1.179,0,0,1-1.345,1.331c-1.05.007-2.1,0-3.206,0" transform="translate(0 0)"/>
    <path id="Path_69244" data-name="Path 69244" d="M14.981,46.577q-3.294,0-6.587,0c-.869,0-1.4-.453-1.391-1.165.013-.69.535-1.126,1.374-1.127q6.643,0,13.287,0c.868,0,1.405.457,1.392,1.168-.014.692-.534,1.123-1.375,1.124q-3.349,0-6.7,0" transform="translate(0 0)"/>
    <path id="Path_69245" data-name="Path 69245" d="M33.039,32.161c3.845-1.2,7.631-2.388,11.422-3.559a1.2,1.2,0,0,1,.665.028c3.645,1.126,7.285,2.268,10.931,3.392.319.1.393.259.392.571-.013,3.305.031,6.612-.022,9.917a14.675,14.675,0,0,1-11.238,13.8,2.251,2.251,0,0,1-1-.022A14.652,14.652,0,0,1,33.137,43.6a16.941,16.941,0,0,1-.093-1.715c-.009-3.228,0-6.456,0-9.725m2.295,6.651c0,1.09-.005,2.18,0,3.269a12.381,12.381,0,0,0,8.732,11.783,2.43,2.43,0,0,0,1.329.005,12.371,12.371,0,0,0,8.746-11.653c.023-2.428.007-4.856.005-7.284a1.211,1.211,0,0,0-1-1.4c-2.64-.829-5.281-1.656-7.931-2.456a1.817,1.817,0,0,0-1,.012c-2.63.794-5.252,1.617-7.875,2.436a1.219,1.219,0,0,0-1.013,1.387c0,1.3,0,2.6,0,3.9" transform="translate(0 0)" fill="#fff"/>
    <path id="Path_69246" data-name="Path 69246" d="M32.576,4.025l6.03,6.027a3.493,3.493,0,0,1-.4.041q-2.2,0-4.407,0c-.871,0-1.22-.347-1.223-1.208,0-1.6,0-3.2,0-4.861" transform="translate(0 0)" fill="#fff"/>
    <path id="Path_69247" data-name="Path 69247" d="M15.753,18.126c1.106,0,2.156.005,3.206,0A1.179,1.179,0,0,0,20.3,16.793c.007-1.065,0-2.13,0-3.225h3.213V16.05c0,1.917.16,2.076,2.094,2.076h2.449v3.212h-3c-1.18,0-1.542.361-1.543,1.535,0,.991,0,1.982,0,3.013H20.305c0-1.025,0-2.05,0-3.074,0-1.094-.384-1.472-1.489-1.473-1.009,0-2.018,0-3.063,0Z" transform="translate(0 0)" fill="#fff"/>
    <path id="Path_69248" data-name="Path 69248" d="M35.334,38.812c0-1.3,0-2.6,0-3.9a1.219,1.219,0,0,1,1.013-1.387c2.623-.819,5.245-1.641,7.875-2.436a1.83,1.83,0,0,1,1-.011c2.649.8,5.29,1.626,7.93,2.455a1.21,1.21,0,0,1,1,1.4c0,2.428.018,4.856-.005,7.284A12.372,12.372,0,0,1,45.4,53.87a2.43,2.43,0,0,1-1.329-.006,12.381,12.381,0,0,1-8.732-11.782c-.006-1.09,0-2.18,0-3.27m16.622.539-.1-.007c0-1.089-.02-2.179.01-3.267a.611.611,0,0,0-.518-.72c-2.082-.626-4.152-1.291-6.232-1.926a1.208,1.208,0,0,0-.666-.017q-3.255.994-6.5,2.036a.524.524,0,0,0-.309.372,67.659,67.659,0,0,0,.137,7.555A9.573,9.573,0,0,0,44.4,51.551a1.09,1.09,0,0,0,.709,0,9.7,9.7,0,0,0,6.477-7.413,35.4,35.4,0,0,0,.368-4.782" transform="translate(0 0)"/>
    <path id="Path_69249" data-name="Path 69249" d="M51.956,39.351a35.58,35.58,0,0,1-.367,4.782,9.7,9.7,0,0,1-6.478,7.412,1.087,1.087,0,0,1-.708.005,9.572,9.572,0,0,1-6.624-8.173,68.161,68.161,0,0,1-.137-7.556.527.527,0,0,1,.309-.371q3.241-1.041,6.5-2.037a1.209,1.209,0,0,1,.666.018c2.08.635,4.15,1.3,6.233,1.926a.61.61,0,0,1,.516.719c-.029,1.089-.009,2.179-.009,3.268l.1.007M43.679,43c-.611-.64-1.163-1.245-1.743-1.819A1.141,1.141,0,1,0,40.3,42.762q1.277,1.314,2.591,2.59a1.112,1.112,0,0,0,1.639,0q2.365-2.331,4.693-4.7a1.094,1.094,0,0,0,.04-1.552,1.166,1.166,0,0,0-1.765.058C46.253,40.4,45.02,41.649,43.679,43" transform="translate(0 0)" fill="#fff"/>
    <path id="Path_69250" data-name="Path 69250" d="M43.679,43c1.341-1.347,2.574-2.595,3.818-3.833a1.166,1.166,0,0,1,1.765-.058,1.094,1.094,0,0,1-.04,1.552q-2.325,2.368-4.693,4.7a1.112,1.112,0,0,1-1.639,0q-1.314-1.275-2.591-2.59a1.141,1.141,0,1,1,1.637-1.585c.58.574,1.132,1.179,1.743,1.819" transform="translate(0 0)"/>
  </g>
</svg>
