<svg xmlns="http://www.w3.org/2000/svg" width="141" height="154" viewBox="0 0 141 154">
  <g id="Group_24322" data-name="Group 24322" transform="translate(-734 -6)">
    <path id="Path_42425" data-name="Path 42425" d="M738.548,8.265A2.274,2.274,0,1,1,736.274,6,2.269,2.269,0,0,1,738.548,8.265Z" fill="#b9d2f7"/>
    <path id="Path_42426" data-name="Path 42426" d="M752.194,8.265A2.274,2.274,0,1,1,749.919,6,2.27,2.27,0,0,1,752.194,8.265Z" fill="#b9d2f7"/>
    <path id="Path_42427" data-name="Path 42427" d="M765.839,8.265A2.275,2.275,0,1,1,763.565,6,2.269,2.269,0,0,1,765.839,8.265Z" fill="#b9d2f7"/>
    <path id="Path_42428" data-name="Path 42428" d="M779.484,8.265A2.275,2.275,0,1,1,777.21,6,2.269,2.269,0,0,1,779.484,8.265Z" fill="#b9d2f7"/>
    <path id="Path_42429" data-name="Path 42429" d="M793.129,8.265A2.274,2.274,0,1,1,790.855,6,2.269,2.269,0,0,1,793.129,8.265Z" fill="#b9d2f7"/>
    <path id="Path_42430" data-name="Path 42430" d="M806.774,8.265A2.274,2.274,0,1,1,804.5,6,2.269,2.269,0,0,1,806.774,8.265Z" fill="#b9d2f7"/>
    <path id="Path_42431" data-name="Path 42431" d="M820.419,8.265A2.274,2.274,0,1,1,818.145,6,2.269,2.269,0,0,1,820.419,8.265Z" fill="#b9d2f7"/>
    <path id="Path_42432" data-name="Path 42432" d="M834.065,8.265A2.275,2.275,0,1,1,831.79,6,2.27,2.27,0,0,1,834.065,8.265Z" fill="#b9d2f7"/>
    <path id="Path_42433" data-name="Path 42433" d="M847.71,8.265A2.275,2.275,0,1,1,845.435,6,2.27,2.27,0,0,1,847.71,8.265Z" fill="#b9d2f7"/>
    <path id="Path_42434" data-name="Path 42434" d="M861.355,8.265A2.274,2.274,0,1,1,859.081,6,2.269,2.269,0,0,1,861.355,8.265Z" fill="#b9d2f7"/>
    <path id="Path_42435" data-name="Path 42435" d="M875,8.265A2.274,2.274,0,1,1,872.726,6,2.269,2.269,0,0,1,875,8.265Z" fill="#b9d2f7"/>
    <path id="Path_42436" data-name="Path 42436" d="M738.548,21.853a2.274,2.274,0,1,1-2.274-2.265A2.269,2.269,0,0,1,738.548,21.853Z" fill="#b9d2f7"/>
    <path id="Path_42437" data-name="Path 42437" d="M752.194,21.853a2.274,2.274,0,1,1-2.275-2.265A2.27,2.27,0,0,1,752.194,21.853Z" fill="#b9d2f7"/>
    <path id="Path_42438" data-name="Path 42438" d="M765.839,21.853a2.275,2.275,0,1,1-2.274-2.265A2.269,2.269,0,0,1,765.839,21.853Z" fill="#b9d2f7"/>
    <path id="Path_42439" data-name="Path 42439" d="M779.484,21.853a2.275,2.275,0,1,1-2.274-2.265A2.269,2.269,0,0,1,779.484,21.853Z" fill="#b9d2f7"/>
    <path id="Path_42440" data-name="Path 42440" d="M793.129,21.853a2.274,2.274,0,1,1-2.274-2.265A2.269,2.269,0,0,1,793.129,21.853Z" fill="#b9d2f7"/>
    <path id="Path_42441" data-name="Path 42441" d="M806.774,21.853a2.274,2.274,0,1,1-2.274-2.265A2.269,2.269,0,0,1,806.774,21.853Z" fill="#b9d2f7"/>
    <path id="Path_42442" data-name="Path 42442" d="M820.419,21.853a2.274,2.274,0,1,1-2.274-2.265A2.269,2.269,0,0,1,820.419,21.853Z" fill="#b9d2f7"/>
    <path id="Path_42443" data-name="Path 42443" d="M834.065,21.853a2.275,2.275,0,1,1-2.275-2.265A2.27,2.27,0,0,1,834.065,21.853Z" fill="#b9d2f7"/>
    <path id="Path_42444" data-name="Path 42444" d="M847.71,21.853a2.275,2.275,0,1,1-2.275-2.265A2.27,2.27,0,0,1,847.71,21.853Z" fill="#b9d2f7"/>
    <path id="Path_42445" data-name="Path 42445" d="M861.355,21.853a2.274,2.274,0,1,1-2.274-2.265A2.269,2.269,0,0,1,861.355,21.853Z" fill="#b9d2f7"/>
    <path id="Path_42446" data-name="Path 42446" d="M875,21.853a2.274,2.274,0,1,1-2.274-2.265A2.269,2.269,0,0,1,875,21.853Z" fill="#b9d2f7"/>
    <path id="Path_42447" data-name="Path 42447" d="M738.548,35.441a2.274,2.274,0,1,1-2.274-2.265A2.269,2.269,0,0,1,738.548,35.441Z" fill="#b9d2f7"/>
    <path id="Path_42448" data-name="Path 42448" d="M752.194,35.441a2.274,2.274,0,1,1-2.275-2.265A2.27,2.27,0,0,1,752.194,35.441Z" fill="#b9d2f7"/>
    <path id="Path_42449" data-name="Path 42449" d="M765.839,35.441a2.275,2.275,0,1,1-2.274-2.265A2.269,2.269,0,0,1,765.839,35.441Z" fill="#b9d2f7"/>
    <path id="Path_42450" data-name="Path 42450" d="M779.484,35.441a2.275,2.275,0,1,1-2.274-2.265A2.269,2.269,0,0,1,779.484,35.441Z" fill="#b9d2f7"/>
    <path id="Path_42451" data-name="Path 42451" d="M793.129,35.441a2.274,2.274,0,1,1-2.274-2.265A2.269,2.269,0,0,1,793.129,35.441Z" fill="#b9d2f7"/>
    <path id="Path_42452" data-name="Path 42452" d="M806.774,35.441a2.274,2.274,0,1,1-2.274-2.265A2.269,2.269,0,0,1,806.774,35.441Z" fill="#b9d2f7"/>
    <path id="Path_42453" data-name="Path 42453" d="M820.419,35.441a2.274,2.274,0,1,1-2.274-2.265A2.269,2.269,0,0,1,820.419,35.441Z" fill="#b9d2f7"/>
    <path id="Path_42454" data-name="Path 42454" d="M834.065,35.441a2.275,2.275,0,1,1-2.275-2.265A2.27,2.27,0,0,1,834.065,35.441Z" fill="#b9d2f7"/>
    <path id="Path_42455" data-name="Path 42455" d="M847.71,35.441a2.275,2.275,0,1,1-2.275-2.265A2.27,2.27,0,0,1,847.71,35.441Z" fill="#b9d2f7"/>
    <path id="Path_42456" data-name="Path 42456" d="M861.355,35.441a2.274,2.274,0,1,1-2.274-2.265A2.269,2.269,0,0,1,861.355,35.441Z" fill="#b9d2f7"/>
    <path id="Path_42457" data-name="Path 42457" d="M875,35.441a2.274,2.274,0,1,1-2.274-2.265A2.269,2.269,0,0,1,875,35.441Z" fill="#b9d2f7"/>
    <path id="Path_42458" data-name="Path 42458" d="M738.548,49.029a2.274,2.274,0,1,1-2.274-2.265A2.269,2.269,0,0,1,738.548,49.029Z" fill="#b9d2f7"/>
    <path id="Path_42459" data-name="Path 42459" d="M752.194,49.029a2.274,2.274,0,1,1-2.275-2.265A2.27,2.27,0,0,1,752.194,49.029Z" fill="#b9d2f7"/>
    <path id="Path_42460" data-name="Path 42460" d="M765.839,49.029a2.275,2.275,0,1,1-2.274-2.265A2.269,2.269,0,0,1,765.839,49.029Z" fill="#b9d2f7"/>
    <path id="Path_42461" data-name="Path 42461" d="M779.484,49.029a2.275,2.275,0,1,1-2.274-2.265A2.269,2.269,0,0,1,779.484,49.029Z" fill="#b9d2f7"/>
    <path id="Path_42462" data-name="Path 42462" d="M793.129,49.029a2.274,2.274,0,1,1-2.274-2.265A2.269,2.269,0,0,1,793.129,49.029Z" fill="#b9d2f7"/>
    <path id="Path_42463" data-name="Path 42463" d="M806.774,49.029a2.274,2.274,0,1,1-2.274-2.265A2.269,2.269,0,0,1,806.774,49.029Z" fill="#b9d2f7"/>
    <path id="Path_42464" data-name="Path 42464" d="M820.419,49.029a2.274,2.274,0,1,1-2.274-2.265A2.269,2.269,0,0,1,820.419,49.029Z" fill="#b9d2f7"/>
    <path id="Path_42465" data-name="Path 42465" d="M834.065,49.029a2.275,2.275,0,1,1-2.275-2.265A2.27,2.27,0,0,1,834.065,49.029Z" fill="#b9d2f7"/>
    <path id="Path_42466" data-name="Path 42466" d="M847.71,49.029a2.275,2.275,0,1,1-2.275-2.265A2.27,2.27,0,0,1,847.71,49.029Z" fill="#b9d2f7"/>
    <path id="Path_42467" data-name="Path 42467" d="M861.355,49.029a2.274,2.274,0,1,1-2.274-2.265A2.269,2.269,0,0,1,861.355,49.029Z" fill="#b9d2f7"/>
    <path id="Path_42468" data-name="Path 42468" d="M875,49.029a2.274,2.274,0,1,1-2.274-2.265A2.269,2.269,0,0,1,875,49.029Z" fill="#b9d2f7"/>
    <path id="Path_42469" data-name="Path 42469" d="M738.548,62.618a2.274,2.274,0,1,1-2.274-2.265A2.269,2.269,0,0,1,738.548,62.618Z" fill="#b9d2f7"/>
    <path id="Path_42470" data-name="Path 42470" d="M752.194,62.618a2.274,2.274,0,1,1-2.275-2.265A2.27,2.27,0,0,1,752.194,62.618Z" fill="#b9d2f7"/>
    <path id="Path_42471" data-name="Path 42471" d="M765.839,62.618a2.275,2.275,0,1,1-2.274-2.265A2.269,2.269,0,0,1,765.839,62.618Z" fill="#b9d2f7"/>
    <path id="Path_42472" data-name="Path 42472" d="M779.484,62.618a2.275,2.275,0,1,1-2.274-2.265A2.269,2.269,0,0,1,779.484,62.618Z" fill="#b9d2f7"/>
    <path id="Path_42473" data-name="Path 42473" d="M793.129,62.618a2.274,2.274,0,1,1-2.274-2.265A2.269,2.269,0,0,1,793.129,62.618Z" fill="#b9d2f7"/>
    <path id="Path_42474" data-name="Path 42474" d="M806.774,62.618a2.274,2.274,0,1,1-2.274-2.265A2.269,2.269,0,0,1,806.774,62.618Z" fill="#b9d2f7"/>
    <path id="Path_42475" data-name="Path 42475" d="M820.419,62.618a2.274,2.274,0,1,1-2.274-2.265A2.269,2.269,0,0,1,820.419,62.618Z" fill="#b9d2f7"/>
    <path id="Path_42476" data-name="Path 42476" d="M834.065,62.618a2.275,2.275,0,1,1-2.275-2.265A2.27,2.27,0,0,1,834.065,62.618Z" fill="#b9d2f7"/>
    <path id="Path_42477" data-name="Path 42477" d="M847.71,62.618a2.275,2.275,0,1,1-2.275-2.265A2.27,2.27,0,0,1,847.71,62.618Z" fill="#b9d2f7"/>
    <path id="Path_42478" data-name="Path 42478" d="M861.355,62.618a2.274,2.274,0,1,1-2.274-2.265A2.269,2.269,0,0,1,861.355,62.618Z" fill="#b9d2f7"/>
    <path id="Path_42479" data-name="Path 42479" d="M875,62.618a2.274,2.274,0,1,1-2.274-2.265A2.269,2.269,0,0,1,875,62.618Z" fill="#b9d2f7"/>
    <path id="Path_42480" data-name="Path 42480" d="M738.548,76.206a2.274,2.274,0,1,1-2.274-2.265A2.269,2.269,0,0,1,738.548,76.206Z" fill="#b9d2f7"/>
    <path id="Path_42481" data-name="Path 42481" d="M752.194,76.206a2.274,2.274,0,1,1-2.275-2.265A2.27,2.27,0,0,1,752.194,76.206Z" fill="#b9d2f7"/>
    <path id="Path_42482" data-name="Path 42482" d="M765.839,76.206a2.275,2.275,0,1,1-2.274-2.265A2.269,2.269,0,0,1,765.839,76.206Z" fill="#b9d2f7"/>
    <path id="Path_42483" data-name="Path 42483" d="M779.484,76.206a2.275,2.275,0,1,1-2.274-2.265A2.269,2.269,0,0,1,779.484,76.206Z" fill="#b9d2f7"/>
    <path id="Path_42484" data-name="Path 42484" d="M793.129,76.206a2.274,2.274,0,1,1-2.274-2.265A2.269,2.269,0,0,1,793.129,76.206Z" fill="#b9d2f7"/>
    <path id="Path_42485" data-name="Path 42485" d="M806.774,76.206a2.274,2.274,0,1,1-2.274-2.265A2.269,2.269,0,0,1,806.774,76.206Z" fill="#b9d2f7"/>
    <path id="Path_42486" data-name="Path 42486" d="M820.419,76.206a2.274,2.274,0,1,1-2.274-2.265A2.269,2.269,0,0,1,820.419,76.206Z" fill="#b9d2f7"/>
    <path id="Path_42487" data-name="Path 42487" d="M834.065,76.206a2.275,2.275,0,1,1-2.275-2.265A2.27,2.27,0,0,1,834.065,76.206Z" fill="#b9d2f7"/>
    <path id="Path_42488" data-name="Path 42488" d="M847.71,76.206a2.275,2.275,0,1,1-2.275-2.265A2.27,2.27,0,0,1,847.71,76.206Z" fill="#b9d2f7"/>
    <path id="Path_42489" data-name="Path 42489" d="M861.355,76.206a2.274,2.274,0,1,1-2.274-2.265A2.269,2.269,0,0,1,861.355,76.206Z" fill="#b9d2f7"/>
    <path id="Path_42490" data-name="Path 42490" d="M875,76.206a2.274,2.274,0,1,1-2.274-2.265A2.269,2.269,0,0,1,875,76.206Z" fill="#b9d2f7"/>
    <path id="Path_42491" data-name="Path 42491" d="M738.548,89.794a2.274,2.274,0,1,1-2.274-2.265A2.269,2.269,0,0,1,738.548,89.794Z" fill="#b9d2f7"/>
    <path id="Path_42492" data-name="Path 42492" d="M752.194,89.794a2.274,2.274,0,1,1-2.275-2.265A2.27,2.27,0,0,1,752.194,89.794Z" fill="#b9d2f7"/>
    <path id="Path_42493" data-name="Path 42493" d="M765.839,89.794a2.275,2.275,0,1,1-2.274-2.265A2.269,2.269,0,0,1,765.839,89.794Z" fill="#b9d2f7"/>
    <path id="Path_42494" data-name="Path 42494" d="M779.484,89.794a2.275,2.275,0,1,1-2.274-2.265A2.269,2.269,0,0,1,779.484,89.794Z" fill="#b9d2f7"/>
    <path id="Path_42495" data-name="Path 42495" d="M793.129,89.794a2.274,2.274,0,1,1-2.274-2.265A2.269,2.269,0,0,1,793.129,89.794Z" fill="#b9d2f7"/>
    <path id="Path_42496" data-name="Path 42496" d="M806.774,89.794a2.274,2.274,0,1,1-2.274-2.265A2.269,2.269,0,0,1,806.774,89.794Z" fill="#b9d2f7"/>
    <path id="Path_42497" data-name="Path 42497" d="M820.419,89.794a2.274,2.274,0,1,1-2.274-2.265A2.269,2.269,0,0,1,820.419,89.794Z" fill="#b9d2f7"/>
    <path id="Path_42498" data-name="Path 42498" d="M834.065,89.794a2.275,2.275,0,1,1-2.275-2.265A2.27,2.27,0,0,1,834.065,89.794Z" fill="#b9d2f7"/>
    <path id="Path_42499" data-name="Path 42499" d="M847.71,89.794a2.275,2.275,0,1,1-2.275-2.265A2.27,2.27,0,0,1,847.71,89.794Z" fill="#b9d2f7"/>
    <path id="Path_42500" data-name="Path 42500" d="M861.355,89.794a2.274,2.274,0,1,1-2.274-2.265A2.269,2.269,0,0,1,861.355,89.794Z" fill="#b9d2f7"/>
    <path id="Path_42501" data-name="Path 42501" d="M875,89.794a2.274,2.274,0,1,1-2.274-2.265A2.269,2.269,0,0,1,875,89.794Z" fill="#b9d2f7"/>
    <path id="Path_42502" data-name="Path 42502" d="M738.548,103.382a2.274,2.274,0,1,1-2.274-2.264A2.269,2.269,0,0,1,738.548,103.382Z" fill="#b9d2f7"/>
    <path id="Path_42503" data-name="Path 42503" d="M752.194,103.382a2.274,2.274,0,1,1-2.275-2.264A2.27,2.27,0,0,1,752.194,103.382Z" fill="#b9d2f7"/>
    <path id="Path_42504" data-name="Path 42504" d="M765.839,103.382a2.275,2.275,0,1,1-2.274-2.264A2.269,2.269,0,0,1,765.839,103.382Z" fill="#b9d2f7"/>
    <path id="Path_42505" data-name="Path 42505" d="M779.484,103.382a2.275,2.275,0,1,1-2.274-2.264A2.269,2.269,0,0,1,779.484,103.382Z" fill="#b9d2f7"/>
    <path id="Path_42506" data-name="Path 42506" d="M793.129,103.382a2.274,2.274,0,1,1-2.274-2.264A2.269,2.269,0,0,1,793.129,103.382Z" fill="#b9d2f7"/>
    <path id="Path_42507" data-name="Path 42507" d="M806.774,103.382a2.274,2.274,0,1,1-2.274-2.264A2.269,2.269,0,0,1,806.774,103.382Z" fill="#b9d2f7"/>
    <path id="Path_42508" data-name="Path 42508" d="M820.419,103.382a2.274,2.274,0,1,1-2.274-2.264A2.269,2.269,0,0,1,820.419,103.382Z" fill="#b9d2f7"/>
    <path id="Path_42509" data-name="Path 42509" d="M834.065,103.382a2.275,2.275,0,1,1-2.275-2.264A2.27,2.27,0,0,1,834.065,103.382Z" fill="#b9d2f7"/>
    <path id="Path_42510" data-name="Path 42510" d="M847.71,103.382a2.275,2.275,0,1,1-2.275-2.264A2.27,2.27,0,0,1,847.71,103.382Z" fill="#b9d2f7"/>
    <path id="Path_42511" data-name="Path 42511" d="M861.355,103.382a2.274,2.274,0,1,1-2.274-2.264A2.269,2.269,0,0,1,861.355,103.382Z" fill="#b9d2f7"/>
    <path id="Path_42512" data-name="Path 42512" d="M875,103.382a2.274,2.274,0,1,1-2.274-2.264A2.269,2.269,0,0,1,875,103.382Z" fill="#b9d2f7"/>
    <path id="Path_42513" data-name="Path 42513" d="M738.548,116.971a2.274,2.274,0,1,1-2.274-2.265A2.269,2.269,0,0,1,738.548,116.971Z" fill="#b9d2f7"/>
    <path id="Path_42514" data-name="Path 42514" d="M752.194,116.971a2.274,2.274,0,1,1-2.275-2.265A2.27,2.27,0,0,1,752.194,116.971Z" fill="#b9d2f7"/>
    <path id="Path_42515" data-name="Path 42515" d="M765.839,116.971a2.275,2.275,0,1,1-2.274-2.265A2.269,2.269,0,0,1,765.839,116.971Z" fill="#b9d2f7"/>
    <path id="Path_42516" data-name="Path 42516" d="M779.484,116.971a2.275,2.275,0,1,1-2.274-2.265A2.269,2.269,0,0,1,779.484,116.971Z" fill="#b9d2f7"/>
    <path id="Path_42517" data-name="Path 42517" d="M793.129,116.971a2.274,2.274,0,1,1-2.274-2.265A2.269,2.269,0,0,1,793.129,116.971Z" fill="#b9d2f7"/>
    <path id="Path_42518" data-name="Path 42518" d="M806.774,116.971a2.274,2.274,0,1,1-2.274-2.265A2.269,2.269,0,0,1,806.774,116.971Z" fill="#b9d2f7"/>
    <path id="Path_42519" data-name="Path 42519" d="M820.419,116.971a2.274,2.274,0,1,1-2.274-2.265A2.269,2.269,0,0,1,820.419,116.971Z" fill="#b9d2f7"/>
    <path id="Path_42520" data-name="Path 42520" d="M834.065,116.971a2.275,2.275,0,1,1-2.275-2.265A2.27,2.27,0,0,1,834.065,116.971Z" fill="#b9d2f7"/>
    <path id="Path_42521" data-name="Path 42521" d="M847.71,116.971a2.275,2.275,0,1,1-2.275-2.265A2.27,2.27,0,0,1,847.71,116.971Z" fill="#b9d2f7"/>
    <path id="Path_42522" data-name="Path 42522" d="M861.355,116.971a2.274,2.274,0,1,1-2.274-2.265A2.269,2.269,0,0,1,861.355,116.971Z" fill="#b9d2f7"/>
    <path id="Path_42523" data-name="Path 42523" d="M875,116.971a2.274,2.274,0,1,1-2.274-2.265A2.269,2.269,0,0,1,875,116.971Z" fill="#b9d2f7"/>
    <path id="Path_42524" data-name="Path 42524" d="M738.548,130.559a2.274,2.274,0,1,1-2.274-2.265A2.269,2.269,0,0,1,738.548,130.559Z" fill="#b9d2f7"/>
    <path id="Path_42525" data-name="Path 42525" d="M752.194,130.559a2.274,2.274,0,1,1-2.275-2.265A2.27,2.27,0,0,1,752.194,130.559Z" fill="#b9d2f7"/>
    <path id="Path_42526" data-name="Path 42526" d="M765.839,130.559a2.275,2.275,0,1,1-2.274-2.265A2.269,2.269,0,0,1,765.839,130.559Z" fill="#b9d2f7"/>
    <path id="Path_42527" data-name="Path 42527" d="M779.484,130.559a2.275,2.275,0,1,1-2.274-2.265A2.269,2.269,0,0,1,779.484,130.559Z" fill="#b9d2f7"/>
    <path id="Path_42528" data-name="Path 42528" d="M793.129,130.559a2.274,2.274,0,1,1-2.274-2.265A2.269,2.269,0,0,1,793.129,130.559Z" fill="#b9d2f7"/>
    <path id="Path_42529" data-name="Path 42529" d="M806.774,130.559a2.274,2.274,0,1,1-2.274-2.265A2.269,2.269,0,0,1,806.774,130.559Z" fill="#b9d2f7"/>
    <path id="Path_42530" data-name="Path 42530" d="M820.419,130.559a2.274,2.274,0,1,1-2.274-2.265A2.269,2.269,0,0,1,820.419,130.559Z" fill="#b9d2f7"/>
    <path id="Path_42531" data-name="Path 42531" d="M834.065,130.559a2.275,2.275,0,1,1-2.275-2.265A2.27,2.27,0,0,1,834.065,130.559Z" fill="#b9d2f7"/>
    <path id="Path_42532" data-name="Path 42532" d="M847.71,130.559a2.275,2.275,0,1,1-2.275-2.265A2.27,2.27,0,0,1,847.71,130.559Z" fill="#b9d2f7"/>
    <path id="Path_42533" data-name="Path 42533" d="M861.355,130.559a2.274,2.274,0,1,1-2.274-2.265A2.269,2.269,0,0,1,861.355,130.559Z" fill="#b9d2f7"/>
    <path id="Path_42534" data-name="Path 42534" d="M875,130.559a2.274,2.274,0,1,1-2.274-2.265A2.269,2.269,0,0,1,875,130.559Z" fill="#b9d2f7"/>
    <path id="Path_42535" data-name="Path 42535" d="M738.548,144.147a2.274,2.274,0,1,1-2.274-2.265A2.269,2.269,0,0,1,738.548,144.147Z" fill="#b9d2f7"/>
    <path id="Path_42536" data-name="Path 42536" d="M752.194,144.147a2.274,2.274,0,1,1-2.275-2.265A2.27,2.27,0,0,1,752.194,144.147Z" fill="#b9d2f7"/>
    <path id="Path_42537" data-name="Path 42537" d="M765.839,144.147a2.275,2.275,0,1,1-2.274-2.265A2.269,2.269,0,0,1,765.839,144.147Z" fill="#b9d2f7"/>
    <path id="Path_42538" data-name="Path 42538" d="M779.484,144.147a2.275,2.275,0,1,1-2.274-2.265A2.269,2.269,0,0,1,779.484,144.147Z" fill="#b9d2f7"/>
    <path id="Path_42539" data-name="Path 42539" d="M793.129,144.147a2.274,2.274,0,1,1-2.274-2.265A2.269,2.269,0,0,1,793.129,144.147Z" fill="#b9d2f7"/>
    <path id="Path_42540" data-name="Path 42540" d="M806.774,144.147a2.274,2.274,0,1,1-2.274-2.265A2.269,2.269,0,0,1,806.774,144.147Z" fill="#b9d2f7"/>
    <path id="Path_42541" data-name="Path 42541" d="M820.419,144.147a2.274,2.274,0,1,1-2.274-2.265A2.269,2.269,0,0,1,820.419,144.147Z" fill="#b9d2f7"/>
    <path id="Path_42542" data-name="Path 42542" d="M834.065,144.147a2.275,2.275,0,1,1-2.275-2.265A2.27,2.27,0,0,1,834.065,144.147Z" fill="#b9d2f7"/>
    <path id="Path_42543" data-name="Path 42543" d="M847.71,144.147a2.275,2.275,0,1,1-2.275-2.265A2.27,2.27,0,0,1,847.71,144.147Z" fill="#b9d2f7"/>
    <path id="Path_42544" data-name="Path 42544" d="M861.355,144.147a2.274,2.274,0,1,1-2.274-2.265A2.269,2.269,0,0,1,861.355,144.147Z" fill="#b9d2f7"/>
    <path id="Path_42545" data-name="Path 42545" d="M875,144.147a2.274,2.274,0,1,1-2.274-2.265A2.269,2.269,0,0,1,875,144.147Z" fill="#b9d2f7"/>
    <path id="Path_42546" data-name="Path 42546" d="M738.548,157.735a2.274,2.274,0,1,1-2.274-2.264A2.269,2.269,0,0,1,738.548,157.735Z" fill="#b9d2f7"/>
    <path id="Path_42547" data-name="Path 42547" d="M752.194,157.735a2.274,2.274,0,1,1-2.275-2.264A2.27,2.27,0,0,1,752.194,157.735Z" fill="#b9d2f7"/>
    <path id="Path_42548" data-name="Path 42548" d="M765.839,157.735a2.275,2.275,0,1,1-2.274-2.264A2.269,2.269,0,0,1,765.839,157.735Z" fill="#b9d2f7"/>
    <path id="Path_42549" data-name="Path 42549" d="M779.484,157.735a2.275,2.275,0,1,1-2.274-2.264A2.269,2.269,0,0,1,779.484,157.735Z" fill="#b9d2f7"/>
    <path id="Path_42550" data-name="Path 42550" d="M793.129,157.735a2.274,2.274,0,1,1-2.274-2.264A2.269,2.269,0,0,1,793.129,157.735Z" fill="#b9d2f7"/>
    <path id="Path_42551" data-name="Path 42551" d="M806.774,157.735a2.274,2.274,0,1,1-2.274-2.264A2.269,2.269,0,0,1,806.774,157.735Z" fill="#b9d2f7"/>
    <path id="Path_42552" data-name="Path 42552" d="M820.419,157.735a2.274,2.274,0,1,1-2.274-2.264A2.269,2.269,0,0,1,820.419,157.735Z" fill="#b9d2f7"/>
    <path id="Path_42553" data-name="Path 42553" d="M834.065,157.735a2.275,2.275,0,1,1-2.275-2.264A2.27,2.27,0,0,1,834.065,157.735Z" fill="#b9d2f7"/>
    <path id="Path_42554" data-name="Path 42554" d="M847.71,157.735a2.275,2.275,0,1,1-2.275-2.264A2.27,2.27,0,0,1,847.71,157.735Z" fill="#b9d2f7"/>
    <path id="Path_42555" data-name="Path 42555" d="M861.355,157.735a2.274,2.274,0,1,1-2.274-2.264A2.269,2.269,0,0,1,861.355,157.735Z" fill="#b9d2f7"/>
    <path id="Path_42556" data-name="Path 42556" d="M875,157.735a2.274,2.274,0,1,1-2.274-2.264A2.269,2.269,0,0,1,875,157.735Z" fill="#b9d2f7"/>
  </g>
</svg>
