<svg xmlns="http://www.w3.org/2000/svg" xmlns:xlink="http://www.w3.org/1999/xlink" width="116.219" height="117.428" viewBox="0 0 116.219 117.428">
  <defs>
    <clipPath id="clip-path">
      <rect id="Rectangle_26477" data-name="Rectangle 26477" width="116.219" height="117.428" fill="none"/>
    </clipPath>
    <clipPath id="clip-path-3">
      <circle id="Ellipse_325" data-name="Ellipse 325" cx="58.11" cy="58.11" r="58.11" fill="none"/>
    </clipPath>
    <clipPath id="clip-path-4">
      <rect id="Rectangle_26475" data-name="Rectangle 26475" width="4.978" height="1.923" fill="none"/>
    </clipPath>
    <clipPath id="clip-path-5">
      <rect id="Rectangle_26476" data-name="Rectangle 26476" width="6.433" height="3.512" fill="none"/>
    </clipPath>
  </defs>
  <g id="Group_24334" data-name="Group 24334" clip-path="url(#clip-path)">
    <g id="Group_24325" data-name="Group 24325">
      <g id="Group_24324" data-name="Group 24324" clip-path="url(#clip-path)">
        <path id="Path_42700" data-name="Path 42700" d="M116.219,58.11A58.11,58.11,0,1,1,58.11,0a58.109,58.109,0,0,1,58.11,58.11" fill="#f4e6e1"/>
      </g>
    </g>
    <g id="Group_24333" data-name="Group 24333" transform="translate(0 0)">
      <g id="Group_24332" data-name="Group 24332" clip-path="url(#clip-path-3)">
        <path id="Path_42701" data-name="Path 42701" d="M89.239,50.841c8-14.4,1.663-22.655-3.456-19.953,0,0-.775-8.93-12.5-14.313C59.726,10.346,42.21,15.2,38.8,24.585c-3.151,8.658,2.476,12.831,2.476,12.831s-3.484,6.222,2.476,15.532,41.911,4.342,45.492-2.106" transform="translate(-9.173 -3.341)" fill="#5b4852"/>
        <path id="Path_42702" data-name="Path 42702" d="M111.126,142.174H9.888s3.07-16.979,10.028-26.753S52.7,102.075,52.7,102.075l7.809,1.205,7.809-1.205s25.831,3.566,32.79,13.346,10.02,26.753,10.02,26.753" transform="translate(-2.397 -24.747)" fill="#d88d48"/>
        <path id="Path_42703" data-name="Path 42703" d="M63.2,102.075l-10,1.875s2.305,11.31,11.448,16.963l6.207-7.607v-8.16Z" transform="translate(-12.897 -24.747)" fill="#fff"/>
        <path id="Path_42704" data-name="Path 42704" d="M83.651,102.075l10,1.875S91.345,115.26,82.2,120.913L76,113.307v-8.16Z" transform="translate(-18.424 -24.747)" fill="#fff"/>
        <path id="Path_42705" data-name="Path 42705" d="M74.289,107.07h0a6.857,6.857,0,0,1-6.857-6.857v-13.1H81.147v13.1a6.857,6.857,0,0,1-6.857,6.857" transform="translate(-16.348 -21.119)" fill="#f1b69a"/>
        <path id="Path_42706" data-name="Path 42706" d="M81.148,85.111v8.043a8.45,8.45,0,0,1-6.858,4c-3.66,0-6.857-3.471-6.857-3.471V85.111Z" transform="translate(-16.348 -20.634)" fill="#150a08"/>
        <path id="Path_42707" data-name="Path 42707" d="M48.593,65.6c-3.708-5.634-8.009-2.014-8.01,1.951,0,5.743,6.23,10.69,9.79,6.567s-1.78-8.519-1.78-8.519" transform="translate(-9.839 -15.199)" fill="#f1b69a"/>
        <path id="Path_42708" data-name="Path 42708" d="M48.631,69.342c-2.308-4.314-5.5-.289-4.279,1.309" transform="translate(-10.687 -16.343)" fill="none" stroke="#e07e61" stroke-linecap="round" stroke-width="1"/>
        <path id="Path_42709" data-name="Path 42709" d="M99.1,65.6c3.708-5.634,8.009-2.014,8.009,1.951,0,5.743-6.229,10.69-9.788,6.567S99.1,65.6,99.1,65.6" transform="translate(-23.296 -15.199)" fill="#f1b69a"/>
        <path id="Path_42710" data-name="Path 42710" d="M101.127,69.342c2.308-4.314,5.5-.289,4.279,1.309" transform="translate(-24.517 -16.343)" fill="none" stroke="#e07e61" stroke-linecap="round" stroke-width="1"/>
        <path id="Path_42711" data-name="Path 42711" d="M68.979,82.09C54.325,82.084,45.66,66.071,49.086,49.63c2.822-13.548,37-13.543,39.82,0C92.332,66.071,83.639,82.1,68.979,82.09" transform="translate(-11.719 -9.569)" fill="#f1b69a"/>
        <g id="Group_24328" data-name="Group 24328" transform="translate(55.313 55.791)" opacity="0.5" style="mix-blend-mode: multiply;isolation: isolate">
          <g id="Group_24327" data-name="Group 24327">
            <g id="Group_24326" data-name="Group 24326" clip-path="url(#clip-path-4)">
              <path id="Path_42712" data-name="Path 42712" d="M73.015,73.915c1.508.72,4.905-.877,4.976,0s-1.8,1.652-2.488,1.652-2.488-1.652-2.488-1.652" transform="translate(-73.015 -73.645)" fill="#f1b69a"/>
            </g>
          </g>
        </g>
        <path id="Path_42713" data-name="Path 42713" d="M72.846,68.17c-2.138,4.623,1.059,5.519,1.915,5.631" transform="translate(-17.485 -16.527)" fill="none" stroke="#e07e61" stroke-linecap="round" stroke-width="1"/>
        <path id="Path_42714" data-name="Path 42714" d="M68.854,78.514C74.511,79.6,79,78.7,80.808,77.246" transform="translate(-16.693 -18.727)" fill="none" stroke="#150a08" stroke-linecap="round" stroke-width="1"/>
        <path id="Path_42715" data-name="Path 42715" d="M65.66,51.162c-.916-2.045-6.282-1.11-7.04.346s1.752,1.864,3.616,1.773,4.007-.817,3.424-2.119" transform="translate(-14.178 -12.117)" fill="#150a08"/>
        <path id="Path_42716" data-name="Path 42716" d="M83.225,51.162c.916-2.045,6.282-1.11,7.04.346s-1.752,1.864-3.616,1.773-4.007-.817-3.424-2.119" transform="translate(-20.153 -12.117)" fill="#150a08"/>
        <g id="Group_24331" data-name="Group 24331" transform="translate(55.026 62.105)" opacity="0.5" style="mix-blend-mode: multiply;isolation: isolate">
          <g id="Group_24330" data-name="Group 24330">
            <g id="Group_24329" data-name="Group 24329" clip-path="url(#clip-path-5)">
              <path id="Path_42717" data-name="Path 42717" d="M73.566,82.45c2.051.005,4.993-1.062,5.448,0s-2.049,3.186-3.6,3.034-4.188-3.04-1.845-3.034" transform="translate(-72.636 -81.979)" fill="#f1b69a"/>
            </g>
          </g>
        </g>
        <path id="Path_42718" data-name="Path 42718" d="M62.839,61.472A1.474,1.474,0,1,0,64.313,60a1.474,1.474,0,0,0-1.474,1.474" transform="translate(-15.235 -14.546)" fill="#150a08"/>
        <path id="Path_42719" data-name="Path 42719" d="M87.43,61.472A1.474,1.474,0,1,1,85.956,60a1.474,1.474,0,0,1,1.474,1.474" transform="translate(-20.482 -14.546)" fill="#150a08"/>
        <path id="Path_42720" data-name="Path 42720" d="M81.717,36.3c-3.8,8.52-12.113,3.668-12.113,3.668a18.815,18.815,0,0,1-13.835,4.294c-8.382-.815-12.748-10.865-2.545-15.117S87.057,24.316,81.717,36.3" transform="translate(-11.466 -6.393)" fill="#5b4852"/>
      </g>
    </g>
  </g>
</svg>
