<svg id="Group_42008" data-name="Group 42008" xmlns="http://www.w3.org/2000/svg" xmlns:xlink="http://www.w3.org/1999/xlink" width="64" height="64" viewBox="0 0 64 64">
  <defs>
    <clipPath id="clip-path">
      <rect id="Rectangle_26484" data-name="Rectangle 26484" width="64" height="64" fill="none"/>
    </clipPath>
  </defs>
  <g id="Group_42007" data-name="Group 42007" clip-path="url(#clip-path)">
    <g id="Group_42006" data-name="Group 42006">
      <g id="Group_42005" data-name="Group 42005" clip-path="url(#clip-path)">
        <g id="Group_42004" data-name="Group 42004">
          <g id="Group_42003" data-name="Group 42003" clip-path="url(#clip-path)">
            <path id="Path_69264" data-name="Path 69264" d="M64,64H0V0H64ZM17.609,55.945c.122-.039.178-.064.237-.075a11.115,11.115,0,0,1,5.486.457c2.06.655,4.094,1.392,6.128,2.127A14.917,14.917,0,0,0,43.3,56.861q5.09-3.282,10.253-6.449c2.165-1.327,4.4-2.537,6.595-3.813a3.824,3.824,0,0,0,1.535-5.038,3.593,3.593,0,0,0-4.883-1.5q-4.782,2.221-9.559,4.458c-.656.306-.885.811-.631,1.339.243.505.756.644,1.4.353.814-.37,1.621-.756,2.432-1.134q3.534-1.653,7.068-3.3a1.83,1.83,0,0,1,1.955.112,1.629,1.629,0,0,1,.662,1.65,1.962,1.962,0,0,1-1.158,1.45C53.136,48.3,47.343,51.67,41.777,55.422a11.7,11.7,0,0,1-8.819,1.918,34.978,34.978,0,0,1-5.067-1.528,29.306,29.306,0,0,0-6.658-1.844c-1.313-.128-2.648-.023-3.985-.023a.633.633,0,0,1-.067-.156q-1.035-6.444-2.07-12.887c-.053-.328.076-.463.354-.614a10.14,10.14,0,0,1,10.645.236,21.139,21.139,0,0,0,13.109,2.643c.685-.057,1.369-.15,2.054-.165a1.435,1.435,0,0,1,1.392,2.135,2.79,2.79,0,0,1-2.05,1.586,14.038,14.038,0,0,1-2.835.388c-3.312.05-6.625.021-9.938.032-.751,0-1.119.344-1.107.971.011.609.351.9,1.089.906,1.6.01,3.209.043,4.813,0,2.537-.063,5.08-.088,7.606-.3a4.837,4.837,0,0,0,4.182-2.86,3.271,3.271,0,0,0-1.218-4.2,1.138,1.138,0,0,1-.219-.2c1.632-1.364,3.281-2.643,4.819-4.044a21.681,21.681,0,0,0,7.419-15.14c.218-3.635.1-7.291.122-10.937.009-1.209.012-2.418,0-3.626-.01-.823-.394-1.164-1.217-1.119-.541.029-1.081.1-1.622.1A22.922,22.922,0,0,1,38.918,2.23c-.727-.51-.972-.515-1.674-.019a22.263,22.263,0,0,1-15.012,4.4c-1.184-.1-1.449.167-1.449,1.352,0,3.71-.018,7.42.008,11.13a36.59,36.59,0,0,0,.2,4.177,22.4,22.4,0,0,0,6.62,13.468c.5.5,1.016.551,1.428.168.449-.418.409-.92-.1-1.472-.577-.63-1.175-1.244-1.706-1.91a21.01,21.01,0,0,1-3.99-8.215h.723c2.23,0,4.46-.027,6.688.014a1.631,1.631,0,0,0,1.729-1.015c.492-1.045,1.086-2.042,1.677-3.135.67,1.184,1.266,2.305,1.937,3.379a1.709,1.709,0,0,0,.923.695c.494.128.758-.3.976-.706.394-.728.806-1.446,1.25-2.237.5.771.979,1.448,1.383,2.169A1.564,1.564,0,0,0,42.2,25.4c.66-.063,1.332-.013,2-.013h1.21l-7.444,7.469c-.134-.127-.3-.278-.461-.437q-2.433-2.43-4.866-4.86a.933.933,0,1,0-1.326,1.3q2.974,2.994,5.968,5.967a.916.916,0,0,0,1.473,0c3.392-3.386,6.81-6.748,10.147-10.187A6.93,6.93,0,0,0,50.806,18.6a6.9,6.9,0,0,0-4.722-5.791,7.27,7.27,0,0,0-7.529,1.442c-.152.126-.3.262-.444.394a7.2,7.2,0,0,0-8.291-1.867,7.436,7.436,0,0,0-4.807,7.152c.026.71.4,1.152.973,1.14s.891-.422.911-1.118c0-.083,0-.166,0-.25a5.673,5.673,0,0,1,4.024-5.245,5.376,5.376,0,0,1,6.095,2.155c.072.1.14.208.221.3a.883.883,0,0,0,1.447,0c.125-.139.23-.3.352-.439a5.467,5.467,0,0,1,8.54,6.826,1.083,1.083,0,0,1-.986.5q-2.031-.044-4.063,0a.983.983,0,0,1-1-.538c-.589-1.006-1.22-1.988-1.863-2.961a.92.92,0,0,0-1.716.047c-.115.2-.228.4-.343.6-.316.541-.634,1.081-1,1.709-.583-1.293-1.1-2.45-1.628-3.6-.183-.4-.379-.812-.916-.814a1.179,1.179,0,0,0-1.1.784c-.667,1.318-1.374,2.617-2.035,3.938a.733.733,0,0,1-.77.465c-2.25-.016-4.5-.007-6.751-.009-.161,0-.323-.02-.592-.037-.289-4.931-.07-9.839-.155-14.789.268,0,.451,0,.633,0A23.422,23.422,0,0,0,37.555,4.258a.72.72,0,0,1,.97,0A24.791,24.791,0,0,0,50.57,8.516c.906.065,1.821.009,2.748.009a4.044,4.044,0,0,1,.046.4c0,4.147.1,8.3-.043,12.441a19.534,19.534,0,0,1-6.094,13.822c-2.187,2.106-4.606,3.97-6.927,5.935a1.014,1.014,0,0,1-.5.223,26.211,26.211,0,0,1-6.358-.032,16.54,16.54,0,0,1-6.456-2.355,11.939,11.939,0,0,0-8.883-1.58c-1.126.251-2.21.692-3.333,1.053a1.533,1.533,0,0,1-.041-.172c-.164-1.024-.356-1.186-1.39-1.165-.854.017-1.709.054-2.562.034a.681.681,0,0,1-.519-.344,1.126,1.126,0,0,0-1.223-.84c-2,.014-4,0-6,.008-.882,0-1.171.292-1.171,1.157q0,11.91,0,23.821c0,.924.509,1.319,1.417,1.127Q7.8,61.1,12.321,60.147c1.113-.236,1.24-.4,1.176-1.5-.009-.142,0-.284,0-.474.259-.012.484-.026.709-.031.833-.02,1.668-.016,2.5-.061a.988.988,0,0,0,1.044-1.235c-.029-.288-.088-.573-.14-.9" fill="#fff"/>
            <path id="Path_69265" data-name="Path 69265" d="M17.61,55.944c.051.326.11.612.139.9A.986.986,0,0,1,16.7,58.078c-.832.045-1.666.041-2.5.061-.226.006-.451.019-.71.031,0,.19-.007.333,0,.474.065,1.1-.062,1.266-1.175,1.5Q7.8,61.1,3.284,62.06c-.908.192-1.416-.2-1.416-1.127q-.006-11.91,0-23.821c0-.865.289-1.153,1.171-1.157,2-.008,4,.007,6-.008a1.126,1.126,0,0,1,1.223.84.682.682,0,0,0,.519.344c.854.021,1.708-.017,2.562-.034,1.034-.02,1.226.141,1.39,1.166a1.583,1.583,0,0,0,.042.172c1.123-.361,2.207-.8,3.333-1.053a11.936,11.936,0,0,1,8.882,1.579,16.539,16.539,0,0,0,6.457,2.355,26.152,26.152,0,0,0,6.357.032,1,1,0,0,0,.5-.223c2.322-1.965,4.741-3.829,6.928-5.934a19.54,19.54,0,0,0,6.094-13.823c.143-4.142.039-8.293.043-12.441,0-.1-.022-.2-.046-.4-.928,0-1.842.055-2.748-.009A24.792,24.792,0,0,1,38.526,4.259a.721.721,0,0,0-.97,0A23.434,23.434,0,0,1,23.291,8.592c-.183-.005-.366,0-.633,0,.085,4.95-.135,9.857.155,14.788.269.018.43.037.592.037,2.25,0,4.5-.007,6.751.01a.735.735,0,0,0,.77-.466c.661-1.321,1.368-2.619,2.035-3.938a1.177,1.177,0,0,1,1.1-.783c.537,0,.732.41.916.813.526,1.154,1.044,2.311,1.628,3.6.368-.629.685-1.169,1-1.71.116-.2.228-.4.343-.6a.921.921,0,0,1,1.717-.047c.643.972,1.273,1.955,1.863,2.96a.984.984,0,0,0,1,.539c1.353-.031,2.709-.029,4.062,0a1.081,1.081,0,0,0,.987-.5,5.467,5.467,0,0,0-8.541-6.825c-.122.142-.226.3-.352.438a.882.882,0,0,1-1.446,0c-.082-.094-.149-.2-.221-.3a5.38,5.38,0,0,0-6.1-2.156A5.675,5.675,0,0,0,26.9,19.7c0,.083,0,.167,0,.25-.019.695-.354,1.106-.911,1.118s-.946-.431-.972-1.141a7.431,7.431,0,0,1,4.807-7.151,7.2,7.2,0,0,1,8.291,1.867c.148-.133.292-.269.444-.395A7.272,7.272,0,0,1,46.085,12.8,6.9,6.9,0,0,1,50.807,18.6,6.929,6.929,0,0,1,48.9,24.64c-3.337,3.44-6.755,6.8-10.147,10.187a.916.916,0,0,1-1.473,0q-2.994-2.973-5.968-5.968a.932.932,0,1,1,1.326-1.3q2.44,2.421,4.865,4.859c.16.159.328.31.462.437,2.478-2.486,4.928-4.945,7.444-7.468H44.2c-.667,0-1.338-.05-2,.013a1.565,1.565,0,0,1-1.662-.927c-.4-.721-.887-1.4-1.384-2.169-.443.791-.855,1.509-1.249,2.237-.218.4-.482.834-.976.706A1.7,1.7,0,0,1,36,24.552c-.671-1.074-1.266-2.194-1.937-3.378-.591,1.093-1.185,2.089-1.677,3.134a1.631,1.631,0,0,1-1.728,1.016c-2.229-.042-4.459-.014-6.688-.014h-.724a21.028,21.028,0,0,0,3.991,8.214c.531.667,1.129,1.281,1.7,1.911.506.552.545,1.053.1,1.471-.411.383-.926.333-1.428-.167a22.405,22.405,0,0,1-6.619-13.468,36.156,36.156,0,0,1-.2-4.178c-.027-3.71-.01-7.419-.009-11.129,0-1.186.265-1.449,1.45-1.353a22.26,22.26,0,0,0,15.012-4.4c.7-.5.947-.491,1.673.02A22.924,22.924,0,0,0,52.507,6.7c.54,0,1.08-.071,1.621-.1.823-.045,1.208.3,1.218,1.119.015,1.209.011,2.418,0,3.626-.026,3.647.1,7.3-.122,10.937a21.682,21.682,0,0,1-7.42,15.14c-1.538,1.4-3.186,2.681-4.819,4.045a1.163,1.163,0,0,0,.22.195,3.271,3.271,0,0,1,1.218,4.2,4.838,4.838,0,0,1-4.182,2.86c-2.526.214-5.07.238-7.607.3-1.6.039-3.208.006-4.813,0-.738-.005-1.078-.3-1.089-.907-.011-.626.356-.968,1.108-.97,3.312-.011,6.625.017,9.937-.032a14.119,14.119,0,0,0,2.836-.388,2.8,2.8,0,0,0,2.05-1.587A1.435,1.435,0,0,0,41.274,43c-.686.014-1.37.107-2.055.164a21.137,21.137,0,0,1-13.108-2.642,10.136,10.136,0,0,0-10.645-.236c-.278.151-.407.286-.354.613q1.042,6.442,2.07,12.887a.654.654,0,0,0,.066.156c1.337,0,2.673-.1,3.986.023a29.4,29.4,0,0,1,6.657,1.844,35.033,35.033,0,0,0,5.068,1.529,11.706,11.706,0,0,0,8.819-1.919c5.565-3.752,11.359-7.118,17.186-10.432a1.957,1.957,0,0,0,1.158-1.45,1.628,1.628,0,0,0-.661-1.65,1.832,1.832,0,0,0-1.955-.112q-3.537,1.644-7.069,3.3c-.81.379-1.617.765-2.432,1.135-.639.29-1.151.152-1.4-.354-.254-.528-.024-1.033.631-1.339q4.777-2.233,9.56-4.458a3.592,3.592,0,0,1,4.882,1.5A3.823,3.823,0,0,1,60.149,46.6c-2.195,1.276-4.431,2.487-6.595,3.813Q48.389,53.575,43.3,56.86a14.91,14.91,0,0,1-13.839,1.593c-2.034-.734-4.069-1.472-6.129-2.127a11.134,11.134,0,0,0-5.485-.457,2.473,2.473,0,0,0-.237.075m-6.045,2.413c-1.041-6.847-2.07-13.613-3.1-20.376H3.792V59.946l7.773-1.589M10.62,39.039c.028.231.039.352.057.473q.532,3.612,1.068,7.225.674,4.506,1.371,9.01c.024.153.2.4.32.4.737.037,1.476.018,2.282.018-.928-5.826-1.83-11.489-2.729-17.129Z"/>
            <path id="Path_69266" data-name="Path 69266" d="M11.565,58.357l-7.773,1.59V37.981H8.467c1.028,6.763,2.057,13.529,3.1,20.376" fill="#fff"/>
            <path id="Path_69267" data-name="Path 69267" d="M10.62,39.039h2.369c.9,5.64,1.8,11.3,2.729,17.129-.806,0-1.545.019-2.282-.018-.117-.006-.3-.25-.32-.4q-.7-4.5-1.371-9.01-.542-3.612-1.068-7.225c-.018-.121-.029-.242-.057-.473" fill="#fff"/>
          </g>
        </g>
      </g>
    </g>
  </g>
</svg>
