<svg id="Group_48769" data-name="Group 48769" xmlns="http://www.w3.org/2000/svg" xmlns:xlink="http://www.w3.org/1999/xlink" width="208.619" height="60.538" viewBox="0 0 208.619 60.538">
  <defs>
    <clipPath id="clip-path">
      <rect id="Rectangle_28905" data-name="Rectangle 28905" width="208.619" height="60.538" fill="none"/>
    </clipPath>
    <clipPath id="clip-path-2">
      <path id="Path_71799" data-name="Path 71799" d="M5.118,51.081V29.4L23.892,18.564,42.666,29.4V51.081L23.892,61.92ZM0,26.448V54.036L23.892,67.83,47.784,54.036V26.448L23.892,12.654Z" transform="translate(0 -12.654)" fill="none"/>
    </clipPath>
    <clipPath id="clip-path-3">
      <path id="Path_71800" data-name="Path 71800" d="M46.489,60.892V82.75L65.917,93.718l5.161-3-19.53-11V57.954Z" transform="translate(-46.489 -57.954)" fill="none"/>
    </clipPath>
    <clipPath id="clip-path-4">
      <path id="Path_71801" data-name="Path 71801" d="M94.375,68.152a2.161,2.161,0,0,0-1.43,2.033v13.41a1.89,1.89,0,0,0,1,1.667c2.481,1.332,8.677,4.785,11.145,6.11a2.961,2.961,0,0,0,2.09.268l.065-.015a2.06,2.06,0,0,0,1.584-2.106,3.311,3.311,0,0,0-1.621-2.813l-9.326-5.4a.7.7,0,0,1-.348-.6V75.942a.465.465,0,0,1,.691-.407l16.271,9.029-.273-5.984L96.428,68.342A2.235,2.235,0,0,0,95.261,68a2.984,2.984,0,0,0-.886.151" transform="translate(-92.945 -68.001)" fill="none"/>
    </clipPath>
  </defs>
  <path id="Path_71796" data-name="Path 71796" d="M5.118,51.081V29.4L23.892,18.564,42.666,29.4V51.081L23.892,61.92ZM0,26.448V54.036L23.892,67.83,47.784,54.036V26.448L23.892,12.654Z" transform="translate(0 -9.71)" fill="#ababab"/>
  <path id="Path_71797" data-name="Path 71797" d="M51.547,57.954V79.715L70.481,90.379,65.3,93.371,46.488,82.751V60.893Z" transform="translate(-35.673 -44.471)" fill="#ababab"/>
  <g id="Group_48760" data-name="Group 48760">
    <g id="Group_48759" data-name="Group 48759" clip-path="url(#clip-path)">
      <path id="Path_71798" data-name="Path 71798" d="M113.986,84.285,98.221,75.536a.465.465,0,0,0-.691.407V80.7a.7.7,0,0,0,.348.6l9.326,5.4a3.312,3.312,0,0,1,1.621,2.813,2.059,2.059,0,0,1-1.585,2.106l-.065.015a2.961,2.961,0,0,1-2.09-.268c-2.468-1.325-8.665-4.778-11.146-6.11a1.89,1.89,0,0,1-1-1.667V70.185a2.16,2.16,0,0,1,1.43-2.033,2.321,2.321,0,0,1,2.053.19l17.559,10.239Z" transform="translate(-71.321 -52.181)" fill="#ababab"/>
    </g>
  </g>
  <g id="Group_48762" data-name="Group 48762" transform="translate(0 2.944)">
    <g id="Group_48761" data-name="Group 48761" clip-path="url(#clip-path-2)">
      <rect id="Rectangle_28906" data-name="Rectangle 28906" width="26.953" height="60.538" transform="translate(23.892 -2.944)" fill="#a2cc7d"/>
    </g>
  </g>
  <g id="Group_48764" data-name="Group 48764" transform="translate(10.816 13.483)">
    <g id="Group_48763" data-name="Group 48763" clip-path="url(#clip-path-3)">
      <rect id="Rectangle_28907" data-name="Rectangle 28907" width="26.953" height="60.538" transform="translate(13.076 -13.483)" fill="#a2cc7d"/>
    </g>
  </g>
  <g id="Group_48766" data-name="Group 48766" transform="translate(21.624 15.82)">
    <g id="Group_48765" data-name="Group 48765" clip-path="url(#clip-path-4)">
      <rect id="Rectangle_28908" data-name="Rectangle 28908" width="26.953" height="60.538" transform="translate(2.268 -15.82)" fill="#a2cc7d"/>
    </g>
  </g>
  <g id="Group_48768" data-name="Group 48768">
    <g id="Group_48767" data-name="Group 48767" clip-path="url(#clip-path)">
      <path id="Path_71802" data-name="Path 71802" d="M248.383,85.721a5.984,5.984,0,0,0-2.457-2.394,7.731,7.731,0,0,0-3.648-.822,8.239,8.239,0,0,0-4.095,1,7.039,7.039,0,0,0-2.792,2.859,9.723,9.723,0,0,0,.019,8.648,7.09,7.09,0,0,0,2.848,2.859,8.682,8.682,0,0,0,4.244,1,7.561,7.561,0,0,0,4.876-1.519,7.186,7.186,0,0,0,2.494-4.234h-8.934V89.294h14.071v4.36a11.5,11.5,0,0,1-2.233,4.824,12.493,12.493,0,0,1-4.411,3.556,13.412,13.412,0,0,1-6.049,1.34,14.145,14.145,0,0,1-6.793-1.626,12.093,12.093,0,0,1-4.765-4.521,13.388,13.388,0,0,1,0-13.168,12.058,12.058,0,0,1,4.765-4.538,15.033,15.033,0,0,1,14.387.429,10.543,10.543,0,0,1,4.467,5.771Z" transform="translate(-175.744 -59.773)"/>
      <path id="Path_71803" data-name="Path 71803" d="M367.037,83.2v6.254h8.748v3.966h-8.748v6.611H376.9V104.1H361.826V79.124H376.9V83.2Z" transform="translate(-277.647 -60.716)"/>
      <path id="Path_71804" data-name="Path 71804" d="M477.333,79.039V104.05h-.608L460.3,88.712v15.172H455.66V78.84h.608l16.391,15.173V79.039Z" transform="translate(-349.652 -60.498)"/>
      <path id="Path_71805" data-name="Path 71805" d="M583.365,83.2v6.254h8.748v3.966h-8.748v6.611h9.864V104.1H578.154V79.124h15.075V83.2Z" transform="translate(-443.647 -60.716)"/>
      <path id="Path_71806" data-name="Path 71806" d="M669.62,102.4a7.99,7.99,0,0,1-3.443-2.573,6.584,6.584,0,0,1-1.3-3.966h5.584a3.406,3.406,0,0,0,1.135,2.43,4.129,4.129,0,0,0,2.811.893,4.446,4.446,0,0,0,2.866-.84,2.688,2.688,0,0,0,1.042-2.2,2.484,2.484,0,0,0-.707-1.823,4.978,4.978,0,0,0-1.768-1.126,30.283,30.283,0,0,0-2.922-.911,32.127,32.127,0,0,1-4.113-1.411,7.148,7.148,0,0,1-2.717-2.108A5.837,5.837,0,0,1,664.948,85a6.544,6.544,0,0,1,1.154-3.859,7.287,7.287,0,0,1,3.238-2.519,12.212,12.212,0,0,1,4.764-.875,10.638,10.638,0,0,1,6.533,1.876,6.87,6.87,0,0,1,2.773,5.235h-5.732a2.824,2.824,0,0,0-1.135-2.126,4.4,4.4,0,0,0-2.81-.84,3.719,3.719,0,0,0-2.438.751,2.66,2.66,0,0,0-.912,2.18,2.206,2.206,0,0,0,.689,1.662,5.258,5.258,0,0,0,1.712,1.072q1.023.411,2.885.947a31.2,31.2,0,0,1,4.132,1.429,7.382,7.382,0,0,1,2.755,2.144,5.794,5.794,0,0,1,1.154,3.752,6.848,6.848,0,0,1-1.079,3.717,7.524,7.524,0,0,1-3.164,2.734,11.169,11.169,0,0,1-4.951,1.019,12.786,12.786,0,0,1-4.895-.893" transform="translate(-510.192 -59.655)"/>
      <rect id="Rectangle_28909" data-name="Rectangle 28909" width="5.211" height="24.943" transform="translate(179.063 18.444)"/>
      <path id="Path_71807" data-name="Path 71807" d="M820.5,102.4a7.99,7.99,0,0,1-3.443-2.573,6.584,6.584,0,0,1-1.3-3.966h5.584a3.406,3.406,0,0,0,1.135,2.43,4.129,4.129,0,0,0,2.811.893,4.446,4.446,0,0,0,2.866-.84,2.688,2.688,0,0,0,1.042-2.2,2.484,2.484,0,0,0-.707-1.823,4.978,4.978,0,0,0-1.768-1.126,30.26,30.26,0,0,0-2.922-.911,32.133,32.133,0,0,1-4.113-1.411,7.148,7.148,0,0,1-2.717-2.108A5.837,5.837,0,0,1,815.828,85a6.544,6.544,0,0,1,1.154-3.859,7.287,7.287,0,0,1,3.238-2.519,12.213,12.213,0,0,1,4.764-.875,10.639,10.639,0,0,1,6.533,1.876,6.87,6.87,0,0,1,2.773,5.235h-5.732a2.825,2.825,0,0,0-1.135-2.126,4.4,4.4,0,0,0-2.81-.84,3.719,3.719,0,0,0-2.438.751,2.66,2.66,0,0,0-.912,2.18,2.206,2.206,0,0,0,.689,1.662,5.257,5.257,0,0,0,1.712,1.072q1.023.411,2.885.947a31.2,31.2,0,0,1,4.132,1.429,7.384,7.384,0,0,1,2.755,2.144,5.794,5.794,0,0,1,1.154,3.752,6.848,6.848,0,0,1-1.079,3.717,7.524,7.524,0,0,1-3.164,2.734,11.169,11.169,0,0,1-4.951,1.019,12.786,12.786,0,0,1-4.895-.893" transform="translate(-625.97 -59.655)"/>
    </g>
  </g>
</svg>
