<svg id="Group_41984" data-name="Group 41984" xmlns="http://www.w3.org/2000/svg" width="56.388" height="56.396" viewBox="0 0 56.388 56.396">
  <g id="Group_24270" data-name="Group 24270">
    <path id="Path_41907" data-name="Path 41907" d="M16.011,51.4c.176.444.334.809.467,1.183a2.4,2.4,0,0,1-1.283,3.1q-2.007.891-4.056,1.682a2.421,2.421,0,0,1-3.245-1.478Q5.657,50.54,3.44,45.194c-.7-1.685-1.408-3.368-2.1-5.056a2.462,2.462,0,0,1,1.456-3.523q1.736-.728,3.478-1.439a2.485,2.485,0,0,1,3.6,1.5c.088.208.18.415.291.671.215-.09.4-.16.584-.246,2.439-1.158,4.874-2.326,7.317-3.474a8.708,8.708,0,0,1,9.008.612,13.928,13.928,0,0,0,4.267,1.655q2.175.585,4.352,1.16a4.228,4.228,0,0,1,2.7,1.957c.184.314.367.334.694.237Q44.3,37.7,49.532,36.195a9.559,9.559,0,0,1,4.513-.336,3.866,3.866,0,0,1,3.174,5.275,5.134,5.134,0,0,1-3.048,3.5Q44.845,48.266,35.48,51.79a9.293,9.293,0,0,1-6.26.328c-2.423-.778-4.895-1.4-7.329-2.148a4.464,4.464,0,0,0-3.583.295c-.735.392-1.5.737-2.3,1.13M15.4,49.969c.777-.374,1.5-.7,2.2-1.067a5.9,5.9,0,0,1,4.638-.425c2.24.669,4.519,1.219,6.725,1.983a8.615,8.615,0,0,0,6.076-.137q9.248-3.5,18.469-7.08a3.786,3.786,0,0,0,2.355-3.083,2.238,2.238,0,0,0-1.76-2.716,6.468,6.468,0,0,0-3.553.088c-3.732,1.042-7.449,2.14-11.166,3.237a.632.632,0,0,0-.34.462,4.3,4.3,0,0,1-5.675,4.053q-4.626-1.233-9.25-2.471c-.81-.217-1.086-.546-.922-1.094.145-.487.538-.6,1.344-.382,3.1.829,6.207,1.649,9.305,2.491a2.876,2.876,0,0,0,2.21-.2,2.685,2.685,0,0,0,1.414-2.663,2.634,2.634,0,0,0-1.958-2.354c-1.55-.451-3.12-.833-4.675-1.27a13.168,13.168,0,0,1-4.28-1.62,7.634,7.634,0,0,0-8.258-.545c-2.391,1.171-4.8,2.3-7.2,3.447-.1.048-.19.117-.337.209,1.543,3.706,3.08,7.4,4.637,11.137M10.291,56a2.486,2.486,0,0,0,.329-.094c1.283-.528,2.571-1.047,3.845-1.6.632-.272.771-.716.481-1.414q-3.263-7.848-6.535-15.691c-.327-.783-.737-.938-1.543-.606q-1.66.684-3.318,1.379c-.988.412-1.126.735-.723,1.706q1.806,4.345,3.614,8.689,1.413,3.4,2.825,6.794A1.086,1.086,0,0,0,10.291,56" transform="translate(-1.065 -1.155)" fill="#F1C986"/>
    <path id="Path_41908" data-name="Path 41908" d="M48.215,29.489c-.372,1.1-.72,2.163-1.09,3.216-.232.657-.844.873-1.281.463a2.19,2.19,0,0,1-.353-.514c-1.354-2.339-2.716-4.673-4.044-7.026a.9.9,0,0,0-.987-.52,25.65,25.65,0,0,1-2.731-.006.7.7,0,0,0-.763.407c-1.344,2.366-2.713,4.718-4.074,7.074-.057.1-.091.234-.176.29-.266.175-.56.454-.827.438a1,1,0,0,1-.652-.586c-.347-.863-.614-1.758-.913-2.64-.06-.177-.127-.352-.213-.586l-2.969.589a.964.964,0,0,1-.39.059c-.309-.082-.715-.126-.875-.34a1.031,1.031,0,0,1,.043-.88c.432-.846.933-1.657,1.409-2.481.884-1.533,1.754-3.075,2.664-4.592a.744.744,0,0,0-.078-1.027,12.015,12.015,0,1,1,21.116-9.595,11.721,11.721,0,0,1-2.651,9.652.649.649,0,0,0-.082.887c1.359,2.313,2.688,4.644,4.033,6.965.208.359.394.72.141,1.117-.283.442-.731.344-1.14.266-1.023-.195-2.042-.412-3.117-.63M49.647,13.2A10.489,10.489,0,1,0,39.131,23.667,10.458,10.458,0,0,0,49.647,13.2M32.182,30.716l3.4-5.881-4.209-2.281c-1.058,1.832-2.156,3.734-3.328,5.762.821-.161,1.5-.3,2.186-.426.759-.134.991.007,1.241.726.223.645.44,1.292.715,2.1M50.3,28.326c-1.184-2.051-2.28-3.95-3.333-5.772l-4.209,2.283L46.153,30.7c.261-.757.476-1.377.689-2,.29-.843.516-.975,1.4-.8.629.125,1.257.255,2.063.419" transform="translate(-1.065 -1.155)" fill="#F1C986"/>
    <path id="Path_41914" data-name="Path 41914" d="M39.185,6.236a6.94,6.94,0,1,1-6.953,6.914,6.975,6.975,0,0,1,6.953-6.914m-5.4,6.928a5.4,5.4,0,1,0,5.418-5.4,5.4,5.4,0,0,0-5.418,5.4" transform="translate(-1.065 -1.155)" fill="#F1C986"/>
  </g>
</svg>
