<svg id="noun-call-center-6163358" xmlns="http://www.w3.org/2000/svg" width="50.547" height="62.877" viewBox="0 0 50.547 62.877">
  <path id="Path_69235" data-name="Path 69235" d="M60.341,61.922c-.726-8.6-1.814-13.594-3.639-16.7-1.812-3.088-4.226-4.149-7.282-5.5a39.056,39.056,0,0,1-8.156-4.533V31.282c2.6-2.08,4.4-5.385,5.218-9.534h2.8a2.2,2.2,0,0,0,2.2-2.2v-4.4A2.2,2.2,0,0,0,49.8,13.015a14.836,14.836,0,0,0-29.452,0,2.205,2.205,0,0,0-1.682,2.137v4.4a2.2,2.2,0,0,0,2.2,2.2h.369L21.5,25.3a3.948,3.948,0,0,0,3.934,3.617h1.187a12.315,12.315,0,0,0,2.251,2.366v3.9a39.056,39.056,0,0,1-8.154,4.532c-3.056,1.346-5.469,2.409-7.282,5.5-1.823,3.109-2.913,8.1-3.639,16.7a.859.859,0,0,0,.856.933H59.483a.859.859,0,0,0,.857-.932ZM44.7,39.385,40.8,46.251,36.244,41.7l4.289-4.92A36.435,36.435,0,0,0,44.7,39.385ZM35.07,40.434,30.6,35.3v-2.88a9.367,9.367,0,0,0,8.948,0V35.3Zm0-34.323a10.215,10.215,0,0,1,10.042,8.432,6.81,6.81,0,0,1-6-3.835.859.859,0,0,0-1.394-.189c-2.974,3.219-6.847,4.84-12.837,5.338A10.211,10.211,0,0,1,35.07,6.11ZM49.759,19.548a.488.488,0,0,1-.484.48H46.76a29.643,29.643,0,0,0,.228-3.716q0-.449-.033-.891v-.035q-.028-.362-.078-.717h2.4a.49.49,0,0,1,.484.483ZM35.07,1.711A13.173,13.173,0,0,1,48.053,12.949H46.505a11.919,11.919,0,0,0-22.871,0H22.087A13.171,13.171,0,0,1,35.07,1.711ZM20.381,19.548v-4.4a.49.49,0,0,1,.484-.483h2.4a11.993,11.993,0,0,0-.114,1.643,29.76,29.76,0,0,0,.229,3.716H20.865a.488.488,0,0,1-.485-.48ZM25.438,27.2a2.222,2.222,0,0,1-2.22-2.028l-.26-3.425h.7a19.458,19.458,0,0,0,1.89,5.453Zm6.337,1.719a2.285,2.285,0,0,0,2.113,1.424h2.364a2.283,2.283,0,1,0,0-4.566H33.888A2.286,2.286,0,0,0,31.774,27.2H27.532A19.574,19.574,0,0,1,24.9,17.579C30.831,17.1,35,15.5,38.178,12.5a8.66,8.66,0,0,0,7.091,3.786v.027h0c0,6.328-1.928,11.284-5.33,13.821a.862.862,0,0,0-.095.07,9.418,9.418,0,0,1-.817.536,7.732,7.732,0,0,1-7.91,0A9.3,9.3,0,0,1,30.3,30.2a.875.875,0,0,0-.1-.071,10.016,10.016,0,0,1-1.358-1.213Zm1.55-.859a.566.566,0,0,1,.566-.566h2.364a.566.566,0,0,1,0,1.128H33.888A.566.566,0,0,1,33.325,28.061Zm-3.716,8.721,4.285,4.92-4.549,4.549-3.908-6.866a36.452,36.452,0,0,0,4.172-2.6ZM11.594,61.135c1.458-16.156,4.118-17.329,9.82-19.84.768-.339,1.6-.7,2.486-1.132l4.505,7.918a.859.859,0,0,0,.632.426.788.788,0,0,0,.115.008.861.861,0,0,0,.608-.251l5.308-5.307,5.309,5.306a.859.859,0,0,0,.607.251.787.787,0,0,0,.115-.008.861.861,0,0,0,.632-.425l4.507-7.921c.889.429,1.719.794,2.487,1.132,5.7,2.511,8.361,3.682,9.82,19.839Z" transform="translate(-9.797 0.022)" fill="#EB7E63"/>
</svg>
